<svg width="148" height="50" viewBox="0 0 148 50" fill="none" xmlns="http://www.w3.org/2000/svg">
<g clip-path="url(#clip0_239_12)">
<path d="M19.2271 29.2762C19.2271 29.5897 19.1498 29.7465 18.7633 29.8248C15.8261 30.1383 11.5556 30.6085 9.42995 30.6085C5.10145 30.6085 0 29.1979 0 22.5953C0 15.9928 5.97101 15.7577 9.17875 15.7577C10.7633 15.7577 13.9324 16.0711 15.0725 16.2279C15.0725 11.7217 12.4831 10.9576 8.63768 10.9576C6.58937 10.9576 4.69565 11.1143 3.28502 11.2319H3.16908C2.9372 11.2319 2.82126 11.1143 2.78261 10.9184L2.39614 8.52815V8.48896C2.39614 8.29304 2.55072 8.17549 2.78261 8.17549C4.75362 7.9012 7.53623 7.70528 9.25604 7.70528C15.2271 7.70528 19.2077 9.58612 19.2077 15.6401V29.2958L19.2271 29.2762ZM3.92271 4.41379C2.68599 4.41379 1.8744 3.86521 1.8744 2.37621C1.8744 0.887203 2.64734 0.260254 3.92271 0.260254C5.19807 0.260254 5.97101 0.848019 5.97101 2.37621C5.97101 3.9044 5.23672 4.41379 3.92271 4.41379ZM15.1884 19.343C15.1884 19.1079 15.1111 18.9512 14.7633 18.9512H9.56522C6.89855 18.9512 4.21256 19.3038 4.21256 22.5953C4.21256 26.4746 6.99517 26.984 9.37198 26.984H14.7633C15.1111 26.984 15.1884 26.9056 15.1884 26.5921V19.3626V19.343ZM15.4589 4.41379C14.1836 4.41379 13.4106 3.86521 13.4106 2.37621C13.4106 0.887203 14.1449 0.260254 15.4589 0.260254C16.7729 0.260254 17.5459 0.848019 17.5459 2.37621C17.5459 3.9044 16.7343 4.41379 15.4589 4.41379Z" fill="#1D1D1D"/>
<path d="M44.7923 29.9424C44.7923 30.0991 44.6763 30.2167 44.5217 30.2167H40.541C40.2319 30.2167 40.1159 30.0991 40 29.864L34.57 21.459C34.4927 21.3414 34.3768 21.1847 34.1449 21.1847H29.3526C29.1208 21.1847 29.0435 21.2631 29.0435 21.4982V29.8248C29.0435 30.0991 28.9275 30.2167 28.6956 30.2167H25.2947C25.0241 30.2167 24.9468 30.0991 24.9468 29.8248V4.06115C24.9468 3.74768 25.1014 3.63013 25.2947 3.63013H34.7053C39.7488 3.63013 44 5.66771 44 11.9568C44 16.6001 41.7198 19.3039 38.8019 20.4402C40.2319 22.7129 44.7343 29.7465 44.7343 29.7465C44.7729 29.8248 44.7729 29.864 44.7729 29.9424H44.7923ZM34.029 6.7061H29.314C29.1208 6.7061 29.0048 6.86283 29.0048 7.01957V17.7757C29.0048 18.0108 29.0821 18.0891 29.3526 18.0891H33.7584C37.5845 18.0891 39.8067 16.5218 39.8067 12.1919C39.8067 8.1951 37.6038 6.72569 34.029 6.72569V6.7061Z" fill="#1D1D1D"/>
<path d="M68.7537 20.7928H52.6377C52.4058 20.7928 52.2899 20.832 52.2899 21.1847C52.4445 26.1023 55.7295 27.1995 60.4638 27.1995C62.2416 27.1995 64.2126 27.0427 66.2802 26.886C66.4348 26.886 66.628 26.9252 66.628 27.1603V27.2386L66.2802 29.6289C66.2029 29.9032 66.087 29.9032 65.8165 29.9816C63.9227 30.2558 61.6039 30.4909 59.1498 30.4909C52.5604 30.4909 48.116 27.7089 48.116 18.9903C48.116 10.2718 52.8889 7.72485 58.686 7.72485C65.7392 7.72485 69.1015 11.7217 69.1015 20.401C69.1015 20.6753 68.9855 20.7928 68.7537 20.7928ZM58.4541 10.8596C54.6667 10.8596 52.2512 12.9756 52.2512 17.3054C52.2512 17.6189 52.3285 17.6973 52.5991 17.6973H64.5604C64.8309 17.6973 64.9855 17.6581 64.9855 17.3446C64.8696 12.956 62.3189 10.8596 58.4735 10.8596H58.4541Z" fill="#1D1D1D"/>
<path d="M79.9034 30.4909C78.0483 30.4909 75.8841 30.295 73.6232 29.9032C73.314 29.8248 73.2367 29.7464 73.2367 29.4722V27.0819C73.2367 26.886 73.3527 26.7684 73.5459 26.7684H73.6619C74.7053 26.8076 77.1788 27.0035 79.2078 27.0035C81.9517 27.0035 85.2174 26.886 85.2174 23.8296C85.2174 18.5593 72.9855 20.93 72.9855 13.387C72.9855 8.78283 77.7585 7.68567 81.9324 7.68567C83.7875 7.68567 86.1063 7.99914 87.8261 8.27343C88.0966 8.3518 88.2512 8.50854 88.2512 8.70446L87.8648 10.9772C87.8648 11.1339 87.7488 11.2514 87.5169 11.2514H87.4396C86.2029 11.1339 84.2319 10.8988 81.9324 10.8988C79.6329 10.8988 77.0628 11.0163 77.0628 13.4458C77.0628 17.6385 89.2561 15.7576 89.2561 23.4965C89.2561 28.473 85.5073 30.4909 79.8841 30.4909H79.9034Z" fill="white"/>
<path d="M105.159 29.7073C105.082 29.9424 104.966 30.0208 104.696 30.0599C103.034 30.2559 102.068 30.4126 100.715 30.4126C97.0435 30.4126 95.4396 28.7669 95.4396 24.8288V10.9576C95.4396 10.6833 95.3237 10.5657 95.0531 10.5657H92.4251C92.1546 10.5657 92.0386 10.409 92.0386 10.1347V8.25386C92.0386 8.01876 92.1546 7.90121 92.4251 7.90121H95.0918C95.3237 7.90121 95.4396 7.78365 95.4396 7.50936V2.37622C95.4396 2.10193 95.5169 1.98437 95.8261 1.906L99.1111 1.55334C99.3816 1.55334 99.5362 1.6709 99.5362 1.94519V7.48977C99.5362 7.76406 99.6135 7.88161 99.9227 7.88161H104.097C104.406 7.88161 104.483 7.99917 104.483 8.27346V10.1543C104.483 10.3894 104.406 10.507 104.097 10.507H99.9227C99.6522 10.507 99.5362 10.6637 99.5362 10.938V23.7709C99.5362 26.0435 99.884 26.984 102.783 26.984H105.14C105.488 26.984 105.527 27.1407 105.527 27.3758L105.179 29.7269L105.159 29.7073Z" fill="white"/>
<path d="M118.01 30.6085C112.348 30.6085 106.976 26.9252 106.976 19.2646C106.976 11.6041 111.749 7.6073 118.048 7.6073C124.348 7.6073 129.159 11.2123 129.159 19.2646C129.159 26.8468 124 30.6085 118.01 30.6085ZM118.01 10.7029C114.184 10.7029 111.072 12.8188 111.072 19.2646C111.072 24.8876 113.932 27.2778 118.087 27.2778C122.242 27.2778 125.14 24.8092 125.14 19.2646C125.14 12.7796 121.932 10.7029 118.01 10.7029Z" fill="white"/>
<path d="M0 45.4201V41.8936H69.0628V45.4201H0Z" fill="#1D1D1D"/>
<path d="M24.8502 39.6993C24.8502 37.6029 26.1449 37.505 28.8116 37.505H123.072C123.072 37.505 126.995 30.295 136.348 30.295C141.198 30.295 148.019 32.5873 148.019 39.523C148.019 47.9084 140.039 49.2603 136.116 49.2603C127.517 49.2603 123.092 41.9328 123.092 41.9328H28.9275C26.1836 41.9328 24.8502 42.0503 24.8502 39.6993Z" fill="white"/>
</g>
<defs>
<clipPath id="clip0_239_12">
<rect width="148" height="49" fill="white" transform="translate(0 0.260254)"/>
</clipPath>
</defs>
</svg>
