<svg width="223" height="116" viewBox="0 0 223 116" fill="none" xmlns="http://www.w3.org/2000/svg">
<g id="Illustration" clip-path="url(#clip0_204_646)">
<g id="Group">
<g id="Group_2">
<path id="Vector" d="M75.2895 52.0691C75.2415 52.0691 75.1888 52.0594 75.1408 52.0449C74.8866 51.9625 74.7523 51.6912 74.829 51.4344C77.6975 42.4511 85.6552 34.2672 95.1048 30.5896C104.291 27.0137 115.078 26.0737 128.082 27.7163C135.196 28.6175 142.314 30.1777 149.193 31.6895C152.958 32.518 156.853 33.3708 160.7 34.1073C169.819 35.8517 181.791 37.5766 193.514 35.4253C196.047 34.9601 199.299 34.1897 201.971 32.3533C204.653 30.5121 206.322 27.7841 206.442 25.061C206.456 24.7945 206.682 24.5813 206.941 24.6007C207.204 24.6104 207.411 24.8381 207.396 25.1046C207.262 28.133 205.434 31.1468 202.508 33.1576C199.688 35.0958 196.311 35.8953 193.682 36.3798C181.806 38.5602 169.718 36.8207 160.518 35.0619C156.661 34.3254 152.757 33.4677 148.986 32.6392C142.127 31.1323 135.033 29.5769 127.962 28.6805C115.117 27.0573 104.482 27.9779 95.4502 31.4957C86.2644 35.0716 78.5273 43.018 75.7452 51.7348C75.678 51.9383 75.491 52.0691 75.2895 52.0691Z" fill="#1D1D1D"/>
<path id="Vector_2" d="M189.13 55.4366C185.633 55.4366 181.906 55.0781 177.968 54.3561C168.725 52.6651 159.76 49.346 151.087 46.1335C148.344 45.116 145.509 44.0646 142.708 43.0858L142.578 43.0422C130.893 38.943 111.332 32.0771 95.7955 41.5692C95.5653 41.7097 95.2727 41.6322 95.1384 41.4044C94.9993 41.1767 95.076 40.8763 95.3015 40.7406C111.222 31.0111 131.047 37.9691 142.895 42.1264L143.024 42.17C145.83 43.1536 148.67 44.2099 151.418 45.2274C160.053 48.4254 168.979 51.7348 178.136 53.4064C189.116 55.4124 198.378 54.579 205.665 50.9256C216.174 45.6538 222.731 35.401 221.978 25.4147C221.959 25.1482 222.156 24.9157 222.42 24.8963C222.683 24.8817 222.914 25.0756 222.933 25.342C223.715 35.7208 216.947 46.3467 206.092 51.7929C201.247 54.2204 195.568 55.4415 189.126 55.4415L189.13 55.4366Z" fill="#1D1D1D"/>
</g>
<g id="Group_3">
<g id="Group_4">
<path id="Vector_3" d="M17.5512 59.1288V110.335H17.5656C18.1508 113.004 38.9159 115.151 64.4489 115.151C89.9819 115.151 110.747 113.004 111.332 110.335H111.347V59.1288H17.5512Z" fill="white"/>
<path id="Vector_4" d="M64.4537 115.631C46.1014 115.631 18.6113 114.279 17.1435 110.572C17.1003 110.499 17.0764 110.417 17.0764 110.33V59.1239C17.0764 58.8574 17.2922 58.6394 17.556 58.6394H111.351C111.615 58.6394 111.831 58.8574 111.831 59.1239V110.33C111.831 110.427 111.802 110.514 111.754 110.591C110.205 114.288 82.7724 115.631 64.4489 115.631H64.4537ZM18.0357 110.214V110.223C18.0501 110.291 18.5537 111.905 31.7016 113.256C40.4988 114.162 52.1309 114.662 64.4489 114.662C76.7669 114.662 88.3989 114.162 97.1961 113.256C110.349 111.905 110.848 110.291 110.862 110.223V110.214V59.6085H18.0309V110.214H18.0357Z" fill="#1D1D1D"/>
</g>
<g id="Group_5">
<path id="Vector_5" d="M64.4537 64.0613C90.3545 64.0613 111.351 61.8529 111.351 59.1288C111.351 56.4046 90.3545 54.1962 64.4537 54.1962C38.5528 54.1962 17.556 56.4046 17.556 59.1288C17.556 61.8529 38.5528 64.0613 64.4537 64.0613Z" fill="white"/>
<path id="Vector_6" d="M64.4537 64.5459C51.9102 64.5459 40.115 64.0323 31.2411 63.0971C17.0764 61.6096 17.0764 59.8071 17.0764 59.1288C17.0764 58.4504 17.0764 56.648 31.2411 55.1604C40.115 54.2253 51.9102 53.7117 64.4537 53.7117C76.9971 53.7117 88.7923 54.2253 97.6662 55.1604C111.831 56.6528 111.831 58.4504 111.831 59.1288C111.831 59.8071 111.831 61.6096 97.6662 63.0971C88.7923 64.0323 76.9971 64.5459 64.4537 64.5459ZM64.4537 54.6807C51.9438 54.6807 40.1822 55.1944 31.3418 56.1247C18.1892 57.5104 18.0357 59.1143 18.0357 59.1288C18.0357 59.1433 18.1892 60.752 31.3418 62.1329C40.1822 63.0632 51.9438 63.5768 64.4537 63.5768C76.9635 63.5768 88.7251 63.0632 97.5655 62.1329C110.718 60.752 110.872 59.1433 110.872 59.1288C110.872 59.1143 110.718 57.5056 97.5655 56.1247C88.7251 55.1944 76.9635 54.6807 64.4537 54.6807Z" fill="#1D1D1D"/>
</g>
<g id="Group_6">
<g id="Group_7">
<g id="Group_8">
<path id="Vector_7" d="M128.423 54.952C128.423 56.803 126.936 58.3002 125.108 58.3002C123.281 58.3002 121.794 56.7981 121.794 54.952C121.794 53.1059 123.281 51.6039 125.108 51.6039C126.936 51.6039 128.423 53.1059 128.423 54.952Z" fill="white"/>
<path id="Vector_8" d="M125.108 58.7848C123.017 58.7848 121.309 57.0647 121.309 54.9521C121.309 52.8395 123.012 51.1194 125.108 51.1194C127.205 51.1194 128.907 52.8395 128.907 54.9521C128.907 57.0647 127.205 58.7848 125.108 58.7848ZM125.108 52.0836C123.545 52.0836 122.269 53.3676 122.269 54.9472C122.269 56.5268 123.54 57.8108 125.108 57.8108C126.677 57.8108 127.948 56.5268 127.948 54.9472C127.948 53.3676 126.677 52.0836 125.108 52.0836Z" fill="#1D1D1D"/>
</g>
<path id="Vector_9" d="M112.589 67.2884C112.55 67.2884 112.517 67.2884 112.479 67.2739C112.22 67.2158 112.061 66.9541 112.119 66.6925C113.14 62.2444 116.359 58.3681 120.518 56.5705C120.763 56.4639 121.041 56.5802 121.146 56.8273C121.252 57.0744 121.137 57.3603 120.892 57.462C117.011 59.1385 114.009 62.758 113.049 66.9105C112.997 67.1334 112.8 67.2836 112.584 67.2836L112.589 67.2884Z" fill="#1D1D1D"/>
</g>
<g id="Group_9">
<g id="Group_10">
<path id="Vector_10" d="M0.479675 54.952C0.479675 56.803 1.96666 58.3002 3.79422 58.3002C5.62177 58.3002 7.10876 56.7981 7.10876 54.952C7.10876 53.1059 5.62177 51.6039 3.79422 51.6039C1.96666 51.6039 0.479675 53.1059 0.479675 54.952Z" fill="white"/>
<path id="Vector_11" d="M3.79421 58.7848C1.70284 58.7848 0 57.0647 0 54.9521C0 52.8395 1.70284 51.1194 3.79421 51.1194C5.88559 51.1194 7.58843 52.8395 7.58843 54.9521C7.58843 57.0647 5.88559 58.7848 3.79421 58.7848ZM3.79421 52.0836C2.23048 52.0836 0.959346 53.3676 0.959346 54.9472C0.959346 56.5268 2.23048 57.8108 3.79421 57.8108C5.35795 57.8108 6.62908 56.5268 6.62908 54.9472C6.62908 53.3676 5.35795 52.0836 3.79421 52.0836Z" fill="#1D1D1D"/>
</g>
<path id="Vector_12" d="M16.3137 67.2884C16.0978 67.2884 15.8964 67.1382 15.8484 66.9153C14.8939 62.7628 11.8863 59.1433 8.00576 57.4668C7.76112 57.3602 7.6508 57.0743 7.75153 56.8321C7.85706 56.585 8.13527 56.4735 8.3799 56.5753C12.5387 58.3729 15.7525 62.2492 16.779 66.6973C16.8365 66.9589 16.6782 67.2205 16.4192 67.2787C16.3808 67.2884 16.3473 67.2932 16.3089 67.2932L16.3137 67.2884Z" fill="#1D1D1D"/>
</g>
</g>
</g>
</g>
<g id="Group_11">
<path id="Vector_13" d="M57.6039 3.84794C58.3954 6.5032 56.1026 9.54609 52.481 10.6411C48.8643 11.741 45.2907 10.4764 44.4993 7.82114C43.7078 5.16588 46.0006 2.12299 49.6222 1.02794C53.2389 -0.0719637 56.8125 1.19268 57.6039 3.84794Z" fill="#1D1D1D"/>
<g id="Group_12">
<path id="Vector_14" d="M98.333 4.82671C99.8631 9.04218 81.8706 19.5712 58.1555 28.3461C34.4357 37.1211 13.9729 40.8181 12.4427 36.6075C10.9125 32.392 27.3317 17.8462 51.0468 9.07126C74.7666 0.291445 96.8076 0.61124 98.333 4.82671Z" fill="white"/>
<path id="Vector_15" d="M17.9494 38.8509C14.6684 38.8509 12.5195 38.2161 11.9966 36.7722C10.2986 32.0867 27.4085 17.2987 50.8885 8.61092C65.3363 3.26648 77.2034 1.91947 82.9882 1.58998C89.9483 1.19751 97.7478 1.79349 98.7887 4.6571C99.8487 7.5837 93.4835 12.056 87.9576 15.2927C80.3452 19.7504 69.8212 24.5473 58.3234 28.8016C43.0746 34.4416 26.5931 38.8509 17.9494 38.8509ZM86.8736 2.44761C85.6936 2.44761 84.4129 2.48153 83.041 2.55905C77.3089 2.88369 65.5473 4.22102 51.2147 9.52185C36.8916 14.8227 27.1207 21.4512 22.5686 24.9301C15.1193 30.6283 12.3324 34.8874 12.8936 36.4379C14.1216 39.8296 32.9487 37.155 57.9877 27.8906C69.4327 23.6558 79.9039 18.8831 87.4684 14.4544C98.0644 8.25236 98.1171 5.64071 97.8821 4.99143C97.4024 3.67349 93.7713 2.44277 86.8736 2.44277V2.44761Z" fill="#1D1D1D"/>
</g>
<g id="Group_13">
<path id="Vector_16" d="M52.6201 13.0832C76.34 4.30823 96.8076 0.611208 98.333 4.82668L52.6201 13.088V13.0832Z" fill="white"/>
<path id="Vector_17" d="M52.6201 13.5678C52.4235 13.5678 52.2412 13.4466 52.1692 13.248C52.0781 12.996 52.2076 12.7198 52.457 12.6278C63.9548 8.37352 75.0544 5.17073 83.7125 3.60568C90.001 2.46702 97.719 1.73052 98.7839 4.65712C98.875 4.90908 98.7455 5.18527 98.4961 5.27733C98.2466 5.36939 97.9732 5.23857 97.8821 4.98661C97.647 4.33248 95.9394 2.37495 83.8804 4.55537C75.2751 6.11073 64.2282 9.29899 52.7832 13.5338C52.7305 13.5532 52.6729 13.5629 52.6201 13.5629V13.5678Z" fill="#1D1D1D"/>
</g>
<g id="Group_14">
<path id="Vector_18" d="M20.2806 28.2588C25.8064 24.7266 33.8697 20.6613 43.3577 16.7172L20.2806 28.2588Z" fill="white"/>
<path id="Vector_19" d="M20.2806 28.7434C20.1223 28.7434 19.964 28.6659 19.8729 28.5205C19.7289 28.2928 19.7961 27.9972 20.0215 27.8519C25.6625 24.2421 33.8841 20.1332 43.1706 16.2714C43.4152 16.1697 43.6934 16.286 43.7941 16.5331C43.8949 16.7802 43.7798 17.0612 43.5351 17.163C34.2966 21.0005 26.1278 25.0852 20.5348 28.6659C20.4533 28.7192 20.3669 28.7434 20.2806 28.7434Z" fill="#1D1D1D"/>
</g>
</g>
</g>
<defs>
<clipPath id="clip0_204_646">
<rect width="223" height="115" fill="white" transform="translate(0 0.630615)"/>
</clipPath>
</defs>
</svg>
