<svg width="360" height="241" viewBox="0 0 360 241" fill="none" xmlns="http://www.w3.org/2000/svg">
<g clip-path="url(#clip0_206_894)">
<path d="M86.8739 44.046C86.6025 44.5254 85.0141 47.9073 85.1614 52.4241C85.3086 56.941 88.4595 61.3307 88.4566 63.8635C88.4566 66.3963 90.5446 66.6244 93.8225 65.3046C97.1003 63.9848 105.863 57.9922 106.53 49.4986C107.197 41.005 111.462 40.3205 105.369 37.3632C99.275 34.4059 86.8739 44.046 86.8739 44.046Z" fill="#1D1D1D"/>
<path d="M175.227 182.996H52.192C50.0929 182.996 48.3914 184.698 48.3914 186.797V236.341C48.3914 238.44 50.0929 240.141 52.192 240.141H175.227C177.326 240.141 179.027 238.44 179.027 236.341V186.797C179.027 184.698 177.326 182.996 175.227 182.996Z" fill="white"/>
<path d="M175.227 240.43H52.1919C49.9364 240.43 48.1025 238.596 48.1025 236.341V186.797C48.1025 184.542 49.9364 182.708 52.1919 182.708H175.227C177.482 182.708 179.316 184.542 179.316 186.797V236.341C179.316 238.596 177.482 240.43 175.227 240.43ZM52.1919 183.285C50.2541 183.285 48.6801 184.859 48.6801 186.797V236.341C48.6801 238.279 50.2541 239.852 52.1919 239.852H175.227C177.164 239.852 178.738 238.276 178.738 236.341V186.797C178.738 184.859 177.162 183.285 175.227 183.285H52.1919Z" fill="#1D1D1D"/>
<path d="M117.186 168.256C114.463 168.357 111.95 170.5 111.425 173.174C106.844 174.965 104.196 180.628 105.761 185.292C107.324 189.957 112.849 192.879 117.585 191.548C118.16 195.057 121.417 197.933 124.972 198.069C128.528 198.202 132.057 197.641 132.894 194.185C133.752 198.158 137.226 199.345 141.258 199.859C145.29 200.376 149.532 198.124 151.363 194.494C154.046 195.594 157.021 193.11 157.875 190.341C158.921 186.956 157.818 183.011 155.169 180.657C152.524 178.303 148.472 177.674 145.235 179.106C144.183 174.563 140.507 170.731 136.013 169.486C131.205 168.155 127.416 170.041 123.476 172.478C121.848 170.301 120.291 168.143 117.186 168.259V168.256Z" fill="#5B9852"/>
<path d="M113.048 200.865C111.743 202.311 111.104 204.342 111.347 206.274C111.552 207.914 112.528 209.592 114.116 210.048C115.705 210.502 117.695 209.11 117.365 207.49C117.521 209.878 119.869 211.83 122.261 211.758C124.652 211.686 126.803 209.78 127.381 207.455C127.959 205.133 127.061 202.566 125.316 200.925C122.191 197.982 116.054 197.529 113.048 200.862V200.865Z" fill="#5B9852"/>
<path d="M49.7429 77.4631H116.603C123.546 77.4631 130.154 80.4522 134.731 85.6737C142.534 94.5688 155.068 109.355 164.815 123.226C171.732 133.074 171.677 146.218 164.703 156.023C157.425 166.252 148.195 179.023 142.699 185.858C141.905 186.843 140.718 187.464 139.453 187.456C138.234 187.447 136.992 186.846 136.897 184.478C136.897 184.478 131.187 187.733 130.2 181.795C130.2 181.795 124.519 184.169 124.843 178.309C124.843 178.309 122.252 181.113 120.796 182.731C113.097 191.276 112.017 184.328 117.342 174.393C119.676 170.038 137.085 144.176 137.085 144.176L120.799 129L112.641 160.851H37.9974L49.7429 77.4631Z" fill="white"/>
<path d="M148.484 178.641C148.423 178.641 148.362 178.621 148.31 178.584C148.183 178.488 148.157 178.306 148.253 178.179C152.521 172.487 157.977 164.975 164.466 155.855C171.362 146.16 171.409 133.115 164.579 123.391C155.071 109.858 142.982 95.5131 134.514 85.8615C129.992 80.7064 123.462 77.749 116.603 77.749H49.9913L38.3266 160.56H112.41L120.513 128.924C120.539 128.826 120.614 128.748 120.713 128.719C120.811 128.691 120.915 128.716 120.99 128.786L137.275 143.962C137.379 144.058 137.397 144.216 137.319 144.335C137.209 144.499 126.142 160.947 120.551 169.7C120.464 169.836 120.285 169.873 120.152 169.787C120.017 169.7 119.979 169.521 120.066 169.388C125.322 161.16 135.407 146.146 136.704 144.216L120.952 129.54L112.912 160.921C112.88 161.048 112.765 161.137 112.632 161.137H37.9974C37.9137 161.137 37.8357 161.1 37.7808 161.039C37.7259 160.975 37.6999 160.892 37.7115 160.808L49.457 77.4198C49.4772 77.2783 49.5985 77.1714 49.7429 77.1714H116.606C123.632 77.1714 130.318 80.201 134.951 85.4802C143.427 95.1435 155.53 109.506 165.052 123.059C172.021 132.979 171.975 146.296 164.937 156.19C158.444 165.316 152.986 172.831 148.715 178.526C148.657 178.601 148.57 178.641 148.484 178.641Z" fill="#1D1D1D"/>
<path d="M158.73 163.889C158.658 163.889 158.583 163.861 158.528 163.806C145.705 151.044 132.678 151.555 132.545 151.563C132.395 151.569 132.25 151.448 132.242 151.289C132.233 151.13 132.357 150.995 132.516 150.986C132.646 150.977 145.936 150.457 158.935 163.396C159.048 163.508 159.048 163.69 158.935 163.803C158.878 163.861 158.805 163.887 158.73 163.887V163.889Z" fill="#1D1D1D"/>
<path d="M163.813 156.794C163.741 156.794 163.666 156.765 163.608 156.71C150.785 143.948 137.246 144.459 137.105 144.468C137.007 144.473 136.891 144.416 136.839 144.32C136.784 144.225 136.79 144.107 136.854 144.017L142.289 136.118C142.378 135.988 142.56 135.954 142.69 136.043C142.823 136.133 142.855 136.315 142.765 136.445L137.642 143.89C140.368 143.942 152.504 144.846 164.015 156.303C164.128 156.415 164.128 156.597 164.015 156.71C163.958 156.768 163.885 156.794 163.81 156.794H163.813Z" fill="#1D1D1D"/>
<path d="M111.422 173.174C111.699 171.765 112.534 170.506 113.657 169.611L124.588 111.672H68.0124L57.6821 161.334L106.085 178.615C107.081 176.192 108.976 174.13 111.422 173.174Z" fill="#5B9852"/>
<path d="M106.085 178.904C106.047 178.904 106.01 178.898 105.975 178.881C105.828 178.82 105.759 178.653 105.819 178.506C106.87 175.944 108.817 173.934 111.174 172.964C111.483 171.592 112.297 170.324 113.481 169.385C113.605 169.284 113.787 169.307 113.888 169.432C113.987 169.556 113.966 169.738 113.842 169.839C112.724 170.728 111.965 171.933 111.711 173.232C111.691 173.327 111.624 173.408 111.532 173.446C109.256 174.335 107.37 176.262 106.356 178.728C106.31 178.841 106.203 178.907 106.091 178.907L106.085 178.904Z" fill="#1D1D1D"/>
<path d="M71.8852 110.9C71.8621 110.9 71.839 110.9 71.8188 110.892C71.6629 110.854 71.5676 110.698 71.6051 110.545C73.4996 102.626 74.2187 94.4908 73.7393 86.364C73.5834 83.6954 72.8816 78.9851 69.9503 77.4256C69.8088 77.3505 69.7568 77.1743 69.8319 77.0357C69.9069 76.8942 70.0802 76.8422 70.2217 76.9173C73.3985 78.6126 74.1494 83.5453 74.314 86.3322C74.7963 94.5168 74.0714 102.71 72.1654 110.681C72.1336 110.814 72.0152 110.903 71.8852 110.903V110.9Z" fill="#5B9852"/>
<path d="M119.696 110.9C119.673 110.9 119.65 110.9 119.63 110.892C119.474 110.854 119.378 110.698 119.416 110.545C121.31 102.626 122.03 94.4908 121.55 86.364C121.394 83.7215 120.695 79.0573 117.761 77.492C117.62 77.417 117.568 77.2408 117.643 77.1022C117.718 76.9606 117.891 76.9087 118.033 76.9837C121.215 78.6819 121.963 83.5684 122.128 86.3322C122.61 94.5168 121.888 102.707 119.979 110.681C119.947 110.814 119.829 110.903 119.699 110.903L119.696 110.9Z" fill="#5B9852"/>
<path d="M102.475 177.171L101.213 187.328L134.815 204.605C142.069 208.336 150.531 208.954 158.254 206.317L158.73 206.155L102.475 177.171Z" fill="#D3EDCC"/>
<path d="M60.7434 77.4632H49.5581C37.4632 77.4632 26.0469 83.0428 18.6074 92.5818C13.7007 98.8719 8.26549 106.889 3.73422 116.168C-4.11248 132.243 1.86568 151.659 17.3454 160.626L70.0456 191.152C71.4925 191.99 73.3177 191.776 74.5307 190.627C74.5307 190.627 76.7053 197.847 83.5788 195.115C83.5788 195.115 88.0234 201.693 93.0803 197.139L96.1907 191.014L101.014 201.624C102.016 203.831 104.427 205.035 106.795 204.509C109.38 203.937 111.107 201.488 110.775 198.86L108.944 184.267C107.864 175.658 102.816 168.051 95.3041 163.708L43.9872 134.048L58.3348 104.859L60.7376 77.466L60.7434 77.4632Z" fill="white"/>
<path d="M60.9166 144.112C60.8675 144.112 60.8184 144.101 60.7722 144.075L43.8514 134.296C43.7185 134.221 43.6694 134.056 43.7359 133.918L51.9956 117.11C52.0649 116.965 52.2381 116.907 52.3825 116.977C52.5269 117.046 52.5847 117.219 52.5154 117.364L44.3741 133.929L61.061 143.575C61.1996 143.656 61.2458 143.832 61.1678 143.971C61.113 144.063 61.0177 144.115 60.9166 144.115V144.112Z" fill="#1D1D1D"/>
<path d="M105.704 204.916C103.616 204.916 101.646 203.698 100.757 201.74L96.182 191.675L93.3431 197.266C93.3258 197.298 93.3055 197.327 93.2796 197.35C91.8558 198.632 90.3367 199.184 88.7685 198.993C86.0307 198.658 84.012 196.177 83.4806 195.461C81.4821 196.209 79.6742 196.203 78.1089 195.447C75.862 194.361 74.7704 192.056 74.4036 191.115C73.1155 192.094 71.325 192.221 69.9041 191.401L17.2067 160.874C9.65172 156.499 4.08076 149.493 1.52199 141.146C-1.03966 132.794 -0.343656 123.876 3.48006 116.041C7.39907 108.01 12.4155 100.059 18.385 92.4057C25.9343 82.728 37.2985 77.1772 49.5639 77.1772H60.7462C60.9051 77.1772 61.035 77.3072 61.035 77.466C61.035 77.6249 60.9051 77.7548 60.7462 77.7548H49.5639C37.4776 77.7548 26.2808 83.2247 18.8413 92.7609C12.8978 100.382 7.90447 108.301 4.00279 116.295C-3.73417 132.147 2.1949 151.509 17.5013 160.375L70.1987 190.901C71.5243 191.669 73.2282 191.47 74.34 190.416C74.4122 190.346 74.5162 190.32 74.6115 190.346C74.7068 190.372 74.7848 190.445 74.8137 190.543C74.8223 190.575 75.7927 193.691 78.363 194.933C79.833 195.64 81.5543 195.611 83.4777 194.846C83.6048 194.797 83.7463 194.84 83.8242 194.953C83.8445 194.985 85.9671 198.075 88.8407 198.424C90.2212 198.592 91.5699 198.101 92.8521 196.96L95.9365 190.884C95.9856 190.785 96.0838 190.719 96.1993 190.725C96.3091 190.725 96.4101 190.794 96.4564 190.895L101.282 201.506C102.224 203.576 104.52 204.723 106.738 204.229C109.192 203.686 110.807 201.393 110.495 198.898L108.664 184.302C108.488 182.89 108.199 181.483 107.806 180.12C107.763 179.967 107.85 179.808 108.003 179.762C108.156 179.719 108.317 179.808 108.361 179.958C108.762 181.35 109.057 182.789 109.239 184.23L111.07 198.826C111.419 201.618 109.611 204.183 106.865 204.792C106.478 204.879 106.091 204.919 105.707 204.919L105.704 204.916Z" fill="#1D1D1D"/>
<path d="M52.2555 181.099C52.2122 181.099 52.1718 181.09 52.1313 181.07C51.9869 181.001 51.9263 180.828 51.9956 180.686C52.0967 180.475 62.3462 159.404 74.0339 151.621C74.1668 151.532 74.3458 151.569 74.4354 151.702C74.5249 151.835 74.4873 152.014 74.3545 152.104C62.7967 159.797 52.6165 180.729 52.5154 180.94C52.4663 181.044 52.3624 181.105 52.2555 181.105V181.099Z" fill="#1D1D1D"/>
<path d="M40.7584 174.471C40.7179 174.471 40.6746 174.462 40.6371 174.445C40.4927 174.379 40.432 174.205 40.4984 174.061C40.5966 173.853 50.4158 153.1 62.1065 145.317C62.2393 145.227 62.4184 145.265 62.5079 145.398C62.5974 145.53 62.5599 145.71 62.427 145.799C50.8721 153.493 41.1194 174.101 41.024 174.309C40.975 174.413 40.871 174.477 40.7612 174.477L40.7584 174.471Z" fill="#1D1D1D"/>
<path d="M70.0485 191.438C70.0109 191.438 69.9734 191.429 69.9359 191.415C63.3801 188.628 65.3555 176.241 65.445 175.713C65.471 175.557 65.6154 175.447 65.7771 175.476C65.9331 175.502 66.0399 175.652 66.0139 175.808C65.9937 175.932 64.0241 188.273 70.1611 190.884C70.3084 190.947 70.3777 191.115 70.3142 191.262C70.268 191.372 70.1611 191.438 70.0485 191.438Z" fill="#1D1D1D"/>
<path d="M43.9958 134.334C43.9438 134.334 43.889 134.319 43.8428 134.287L35.8892 129.242C35.7535 129.155 35.7159 128.979 35.7997 128.844C35.8863 128.708 36.0625 128.667 36.1982 128.754L44.1518 133.799C44.2875 133.886 44.3251 134.062 44.2413 134.198C44.1864 134.285 44.094 134.331 43.9958 134.331V134.334Z" fill="#1D1D1D"/>
<path d="M92.9532 53.6169L82.0741 77.3736L105.429 77.44L106.957 73.5874L92.9532 53.6169Z" fill="white"/>
<path d="M105.429 77.7288L82.0741 77.6595C81.9759 77.6595 81.8835 77.6104 81.8315 77.5267C81.7795 77.4429 81.7708 77.3389 81.8113 77.2494L92.6904 53.4927C92.7337 53.3974 92.8232 53.3339 92.9272 53.3252C93.0283 53.3165 93.1294 53.3628 93.19 53.4465L107.194 73.417C107.249 73.4979 107.263 73.599 107.226 73.6885L105.698 77.5411C105.655 77.6508 105.548 77.723 105.429 77.723V77.7288ZM82.5217 77.0848L105.233 77.1512L106.631 73.625L93.0052 54.1945L82.5217 77.0848Z" fill="#1D1D1D"/>
<path d="M103.642 40.6873C93.9785 44.4215 99.4397 56.7591 99.4397 56.7591L95.6593 56.0717C96.7914 52.9902 93.0947 44.5053 88.6386 50.2611C84.0149 56.2363 94.3972 61.403 94.3972 61.403C92.0031 73.007 102.409 73.4835 106.902 74.6011C110.697 75.5426 114.486 73.0416 115.139 69.1861C116.935 58.5785 117.354 41.779 117.354 41.779C117.354 41.779 113.305 36.9532 103.639 40.6873H103.642Z" fill="white"/>
<path d="M108.537 75.0921C107.971 75.0921 107.402 75.0228 106.836 74.8812C106.313 74.7513 105.701 74.6271 105.048 74.4971C101.799 73.8473 97.3516 72.955 95.1221 69.5847C93.782 67.5602 93.4297 64.8628 94.0737 61.5589C93.0109 60.9957 88.1447 58.2406 87.2898 54.518C86.9404 52.9902 87.3158 51.4971 88.4104 50.0849C90.3222 47.6127 91.9944 47.7976 93.0572 48.3867C95.2463 49.5968 96.5776 53.6256 96.0289 55.8464L98.9718 56.3807C98.3451 54.7577 96.6065 49.5159 98.3826 45.2244C99.3039 43.0006 101.037 41.3833 103.535 40.4187C113.279 36.6557 117.403 41.3891 117.573 41.5942C117.62 41.649 117.643 41.7154 117.64 41.7876C117.637 41.9552 117.201 58.7287 115.422 69.2352C115.095 71.1586 113.972 72.877 112.34 73.9455C111.182 74.7022 109.871 75.0921 108.531 75.0921H108.537ZM91.6998 48.5976C90.5677 48.5976 89.5684 49.5304 88.8667 50.4372C87.8847 51.7079 87.544 53.0364 87.853 54.388C88.7309 58.2204 94.4694 61.1142 94.5271 61.143C94.6456 61.2008 94.7091 61.3307 94.6802 61.4607C94.0102 64.7039 94.3221 67.332 95.6015 69.2641C97.6982 72.4322 102.01 73.2986 105.161 73.9282C105.819 74.0611 106.437 74.1852 106.974 74.3181C108.725 74.7513 110.518 74.4481 112.028 73.4575C113.527 72.4755 114.558 70.9016 114.856 69.1341C116.551 59.1301 117.022 43.402 117.062 41.8858C116.488 41.2996 112.407 37.6087 103.743 40.953C101.398 41.8598 99.7746 43.3674 98.9169 45.4381C96.9242 50.2466 99.6736 56.5742 99.6996 56.6377C99.7429 56.7359 99.7284 56.8486 99.662 56.9323C99.5956 57.0161 99.4887 57.0565 99.3848 57.0392L95.6044 56.3518C95.5206 56.3374 95.4484 56.2854 95.4051 56.2103C95.3618 56.1352 95.356 56.0486 95.3849 55.9677C96.0809 54.0761 94.8246 50.0213 92.7741 48.8864C92.4045 48.6813 92.0435 48.5947 91.6969 48.5947L91.6998 48.5976Z" fill="#1D1D1D"/>
<path d="M94.6311 59.1185C94.5156 59.1185 94.4087 59.0492 94.3625 58.9366C93.7936 57.5244 92.8896 56.2421 91.7547 55.2284C91.6363 55.1215 91.6247 54.9396 91.7316 54.8212C91.8384 54.7028 92.0204 54.6912 92.1388 54.7981C93.3402 55.8695 94.2961 57.2269 94.8997 58.72C94.9604 58.8673 94.8881 59.0348 94.7409 59.0954C94.7062 59.1099 94.6687 59.1157 94.634 59.1157L94.6311 59.1185Z" fill="#1D1D1D"/>
<path d="M113.553 1.44801C111.272 1.84078 109.553 2.64653 108.297 3.59669C103.671 0.968605 98.1285 -0.215475 92.9474 1.98518C89.0053 3.66022 88.0147 8.33878 88.0147 8.33878C88.0147 8.33878 78.0107 7.77851 74.1292 10.9178C70.2448 14.057 74.5566 20.968 74.5566 20.968C74.5566 20.968 69.5777 22.9001 71.0073 28.0176C72.2866 32.598 84.991 35.4744 84.991 35.4744L85.2538 48.817C85.2538 48.817 94.7784 45.724 104.17 45.2677C113.565 44.8085 117.738 45.8077 117.738 45.8077L116.996 31.6247C119.783 29.9815 125.235 25.9498 126.746 19.0735C128.747 9.96762 123.612 -0.284787 113.559 1.44224L113.553 1.44801Z" fill="white"/>
<path d="M85.2509 49.1087C85.1902 49.1087 85.1325 49.0914 85.0834 49.0538C85.0083 49.0018 84.965 48.9152 84.9621 48.8257L84.7051 35.7055C82.9434 35.2867 71.9574 32.5027 70.7271 28.0956C69.4593 23.5557 73.0462 21.3839 74.1436 20.8409C73.3581 19.4749 70.3199 13.6238 73.9473 10.6925C77.5804 7.7554 86.201 7.972 87.7923 8.03843C88.058 7.0334 89.2739 3.22991 92.8377 1.71659C97.4902 -0.258798 102.966 0.287034 108.28 3.25012C109.706 2.21333 111.465 1.51155 113.51 1.15921C117.461 0.48053 120.923 1.55775 123.52 4.27248C126.867 7.77851 128.245 13.6123 127.029 19.1341C125.487 26.1549 119.823 30.2616 117.293 31.7807L118.027 45.7875C118.033 45.8799 117.992 45.9665 117.923 46.0243C117.854 46.0821 117.758 46.1052 117.672 46.0821C117.631 46.0734 113.415 45.0973 104.185 45.5507C94.9401 46.0012 85.4386 49.0567 85.3433 49.0885C85.3144 49.0971 85.2827 49.1029 85.2538 49.1029L85.2509 49.1087ZM86.2733 8.59292C83.2611 8.59292 77.101 8.8875 74.3083 11.143C70.6694 14.0859 74.7559 20.7514 74.7992 20.8178C74.8454 20.89 74.8541 20.9796 74.8281 21.0604C74.8021 21.1413 74.7386 21.2077 74.6577 21.2395C74.4642 21.3146 69.9416 23.1427 71.2816 27.9425C72.5004 32.3034 84.9246 35.1654 85.0516 35.1943C85.1816 35.2232 85.274 35.3387 85.2769 35.4715L85.531 48.43C87.3822 47.8611 95.8672 45.3861 104.153 44.9817C112.026 44.5976 116.21 45.2243 117.426 45.4525L116.704 31.6449C116.698 31.5381 116.753 31.437 116.846 31.3821C119.228 29.9757 124.935 25.9585 126.46 19.0186C127.635 13.6787 126.312 8.04998 123.095 4.67968C120.64 2.10936 117.36 1.0899 113.602 1.73681C111.575 2.08626 109.851 2.79093 108.47 3.83061C108.378 3.89992 108.254 3.90859 108.153 3.85083C102.951 0.89929 97.5884 0.330354 93.0572 2.25376C89.297 3.85083 88.3035 8.35611 88.292 8.40232C88.2631 8.54094 88.1302 8.63913 87.9945 8.63047C87.9685 8.63047 87.3072 8.59581 86.2704 8.59581L86.2733 8.59292Z" fill="#5B9852"/>
<path d="M85.0025 35.8326C84.8986 35.8326 84.7975 35.7748 84.7455 35.6766C84.6704 35.5351 84.7253 35.3618 84.8668 35.2867C84.9217 35.2578 90.5302 32.3612 100.791 31.0009C111.073 29.6378 115.422 31.1829 115.601 31.2493C115.751 31.3042 115.826 31.4688 115.771 31.619C115.716 31.7691 115.549 31.8471 115.402 31.7894C115.358 31.7749 110.98 30.2327 100.866 31.5728C90.7179 32.9186 85.1874 35.769 85.1325 35.795C85.0892 35.8181 85.043 35.8268 84.9997 35.8268L85.0025 35.8326Z" fill="#5B9852"/>
<path d="M107.503 30.8623C107.445 30.8623 107.387 30.845 107.338 30.8103C107.208 30.7179 107.174 30.5388 107.266 30.4089C112.465 22.9376 108.034 14.2621 107.988 14.1754C107.913 14.0339 107.968 13.8606 108.109 13.7855C108.251 13.7133 108.424 13.7653 108.499 13.9068C108.546 13.9964 113.14 22.9752 107.737 30.7381C107.682 30.819 107.593 30.8623 107.5 30.8623H107.503Z" fill="#5B9852"/>
<path d="M109.577 30.9432C109.473 30.9432 109.374 30.8883 109.322 30.7901C109.247 30.6486 109.299 30.4753 109.441 30.4002C114.116 27.8934 114.218 22.7788 114.22 22.7268C114.22 22.568 114.356 22.4496 114.512 22.4409C114.671 22.4409 114.801 22.5708 114.798 22.7326C114.798 22.7874 114.7 28.2371 109.715 30.9085C109.672 30.9316 109.626 30.9432 109.579 30.9432H109.577Z" fill="#5B9852"/>
<path d="M94.4376 32.393C94.377 32.393 94.3163 32.3727 94.2643 32.3352C90.9056 29.7966 89.6638 24.6791 89.6118 24.4625C89.5742 24.3066 89.6724 24.1506 89.8255 24.1159C89.9785 24.0784 90.1374 24.1766 90.172 24.3297C90.1836 24.3816 91.4197 29.4616 94.6109 31.8731C94.738 31.9684 94.764 32.1504 94.6658 32.2774C94.608 32.3525 94.5214 32.393 94.4347 32.393H94.4376Z" fill="#5B9852"/>
<path d="M86.8249 34.712C86.7989 34.712 86.7729 34.7091 86.7469 34.7005C84.012 33.9496 82.4467 31.4168 82.3831 31.31C82.2994 31.1742 82.3427 30.9952 82.4784 30.9143C82.6142 30.8305 82.7932 30.8739 82.8741 31.0096C82.8885 31.0356 84.3903 33.4529 86.9 34.1431C87.053 34.1864 87.1454 34.3452 87.1021 34.4983C87.0675 34.6254 86.9519 34.712 86.8249 34.712Z" fill="#5B9852"/>
<path d="M92.5084 33.063C92.5084 33.063 92.4969 33.063 92.4911 33.063C92.4074 33.0572 90.4031 32.9099 87.7201 30.2934C85.0112 27.6509 83.6047 22.3369 83.3246 19.4114C83.3101 19.2526 83.4257 19.111 83.5845 19.0966C83.7405 19.0822 83.8849 19.1977 83.8993 19.3565C84.1737 22.1983 85.5252 27.3447 88.1244 29.8804C90.6543 32.3468 92.5084 32.4854 92.5258 32.4883C92.6846 32.4969 92.8059 32.6355 92.7972 32.7944C92.7886 32.9475 92.6615 33.0659 92.5084 33.0659V33.063Z" fill="#5B9852"/>
<path d="M74.161 206.684C79.7579 204.951 93.9294 202.095 98.8996 215.489C98.8996 215.489 96.3322 222.504 86.4639 221.043C79.2872 219.98 74.8166 213.3 72.9134 209.736C72.2809 208.552 72.8758 207.082 74.161 206.684Z" fill="#5B9852"/>
<path d="M104.341 225.447C104.19 225.447 104.066 225.332 104.052 225.181C103.587 219.495 100.13 215.611 93.785 213.638C89.0082 212.154 84.2979 212.37 84.2517 212.373C84.0928 212.385 83.9571 212.258 83.9484 212.099C83.9398 211.94 84.0639 211.804 84.2228 211.796C84.2719 211.793 89.0689 211.57 93.9438 213.084C100.453 215.102 104.15 219.27 104.629 225.135C104.644 225.294 104.523 225.433 104.367 225.447C104.358 225.447 104.349 225.447 104.343 225.447H104.341Z" fill="#1D1D1D"/>
<path d="M59.334 228.803C58.8343 229.43 70.525 235.772 79.2179 235.353C87.9107 234.934 91.7605 226.614 91.7605 226.614C91.7605 226.614 83.0618 218.782 72.7458 219.625C62.4299 220.468 59.334 228.803 59.334 228.803Z" fill="#5B9852"/>
<path d="M98.9775 229.612C98.9284 229.612 98.8793 229.6 98.8331 229.574C88.858 223.844 77.1616 228.145 77.0432 228.188C76.893 228.243 76.7284 228.168 76.6706 228.02C76.6129 227.873 76.6908 227.706 76.8381 227.648C76.9565 227.602 88.91 223.209 99.119 229.074C99.2577 229.155 99.3039 229.332 99.2259 229.47C99.1739 229.563 99.0757 229.615 98.9746 229.615L98.9775 229.612Z" fill="#1D1D1D"/>
<path d="M227.805 154.313L239.242 197.95L324.709 191.632L309.663 165.449L227.805 154.313Z" fill="white"/>
<path d="M239.242 198.239C239.112 198.239 238.996 198.153 238.962 198.023L227.525 154.385C227.502 154.293 227.525 154.191 227.589 154.119C227.652 154.047 227.748 154.012 227.843 154.024L309.701 165.16C309.79 165.172 309.868 165.224 309.911 165.302L324.958 191.484C325.007 191.571 325.01 191.675 324.964 191.764C324.917 191.851 324.828 191.909 324.73 191.917L239.262 198.236C239.262 198.236 239.248 198.236 239.239 198.236L239.242 198.239ZM228.195 154.656L239.461 197.644L324.233 191.377L309.484 165.718L228.195 154.659V154.656Z" fill="#1D1D1D"/>
<path d="M346.898 183.782H224.219C222.019 183.782 220.236 185.565 220.236 187.764V236.271C220.236 238.471 222.019 240.254 224.219 240.254H346.898C349.098 240.254 350.881 238.471 350.881 236.271V187.764C350.881 185.565 349.098 183.782 346.898 183.782Z" fill="white"/>
<path d="M346.898 240.543H224.219C221.865 240.543 219.947 238.628 219.947 236.271V187.762C219.947 185.408 221.862 183.49 224.219 183.49H346.898C349.252 183.49 351.169 185.405 351.169 187.762V236.271C351.169 238.625 349.255 240.543 346.898 240.543ZM224.219 184.071C222.183 184.071 220.525 185.728 220.525 187.765V236.274C220.525 238.31 222.183 239.968 224.219 239.968H346.898C348.934 239.968 350.592 238.31 350.592 236.274V187.765C350.592 185.728 348.934 184.071 346.898 184.071H224.219Z" fill="#1D1D1D"/>
<path d="M251.99 223.417C251.99 224.849 246.783 226.01 240.36 226.01C233.937 226.01 228.73 224.849 228.73 223.417C228.73 223.394 228.73 220.283 228.733 220.26C228.894 218.86 234.038 220.821 240.36 220.821C246.681 220.821 251.761 218.787 251.984 220.177C251.99 220.208 251.992 223.382 251.992 223.414L251.99 223.417Z" fill="#5B9852"/>
<path d="M240.36 222.79C246.783 222.79 251.99 221.629 251.99 220.197C251.99 218.764 246.783 217.603 240.36 217.603C233.937 217.603 228.73 218.764 228.73 220.197C228.73 221.629 233.937 222.79 240.36 222.79Z" fill="#D3EDCC"/>
<path d="M258.531 226.256C257.644 227.382 252.836 225.072 247.788 221.098C242.739 217.124 239.369 212.988 240.256 211.862C240.27 211.845 242.196 209.401 242.211 209.387C243.204 208.388 246.032 213.11 250.999 217.023C255.935 220.91 261.214 222.481 260.529 223.711C260.515 223.74 258.551 226.236 258.531 226.259V226.256Z" fill="#5B9852"/>
<path d="M260.526 223.746C261.412 222.621 258.041 218.487 252.995 214.512C247.95 210.538 243.141 208.228 242.254 209.353C241.368 210.478 244.74 214.612 249.785 218.587C254.831 222.561 259.64 224.871 260.526 223.746Z" fill="#D3EDCC"/>
<path d="M347.915 107.316L294.094 79.863C287.873 76.3772 280.673 75.0487 273.618 76.0797L218.16 84.195C208.479 85.613 199.962 91.3371 194.995 99.7671L178.331 137.984C175.102 146.486 178.955 156.043 187.18 159.93L212.643 171.964L215.277 168.181L242.312 163.502L258.242 166.988L280.015 182.869L308.386 163.93L295.286 127.668L312.415 139.948L322.301 152.216L322.012 157.946L340.504 168.712L349.405 155.638C362.225 135.082 362.75 115.628 347.909 107.313L347.915 107.316Z" fill="white"/>
<path d="M280.023 183.158C279.963 183.158 279.905 183.141 279.853 183.103L258.129 167.257L242.312 163.797L215.451 168.447L212.883 172.132C212.802 172.247 212.652 172.288 212.522 172.227L187.059 160.193C183.015 158.281 179.868 154.945 178.195 150.798C176.523 146.651 176.477 142.065 178.063 137.883L194.729 99.6516C194.729 99.6516 194.741 99.6314 194.747 99.6198C199.783 91.0713 208.3 85.3444 218.119 83.9091L273.575 75.7938C280.653 74.757 287.991 76.1115 294.232 79.6089L348.042 107.056C348.042 107.056 348.047 107.059 348.053 107.062C353.477 110.1 356.994 114.632 358.508 120.529C360.977 130.152 357.832 142.674 349.653 155.791L340.747 168.877C340.66 169.001 340.492 169.042 340.362 168.964L321.871 158.194C321.778 158.139 321.723 158.038 321.726 157.929L322.012 152.309L312.219 140.156L295.879 128.439L308.664 163.826C308.71 163.95 308.664 164.092 308.554 164.164L280.182 183.103C280.133 183.135 280.078 183.152 280.021 183.152L280.023 183.158ZM242.318 163.214C242.338 163.214 242.358 163.214 242.378 163.219L258.309 166.705C258.349 166.714 258.384 166.731 258.418 166.754L280.029 182.517L308.046 163.817L295.021 127.769C294.977 127.651 295.018 127.518 295.119 127.44C295.22 127.365 295.359 127.362 295.463 127.437L312.591 139.717C312.612 139.731 312.632 139.749 312.649 139.772L322.535 152.04C322.578 152.095 322.601 152.164 322.598 152.236L322.318 157.79L340.426 168.334L349.174 155.482C357.263 142.512 360.382 130.149 357.953 120.679C356.48 114.944 353.058 110.534 347.782 107.576L293.967 80.1258C287.827 76.6862 280.618 75.3548 273.664 76.3714L218.209 84.4867C208.571 85.8961 200.208 91.5161 195.261 99.9057L178.605 138.108C175.458 146.4 179.278 155.881 187.313 159.676L212.557 171.606L215.052 168.022C215.095 167.959 215.165 167.915 215.24 167.904L242.274 163.222C242.292 163.222 242.306 163.219 242.323 163.219L242.318 163.214Z" fill="#1D1D1D"/>
<path d="M311.673 148.71C311.673 148.71 304.774 155.901 298.784 160.863C295.411 163.658 297.331 165.94 297.331 165.94C297.331 165.94 311.595 167.635 311.763 172.21C311.93 176.784 306.735 186.884 306.735 186.884C306.735 186.884 307.688 191.363 313.775 189.48C313.775 189.48 316.944 192.267 320.291 189.853C320.291 189.853 323.863 192.486 327.381 188.328C330.901 184.172 331.672 182.641 331.672 182.641C331.672 182.641 330.272 187.248 332.686 187.435C335.1 187.623 337.622 181.668 339.617 175.049C340.66 171.583 337.212 153.932 337.212 153.932L311.667 148.704L311.673 148.71Z" fill="white"/>
<path d="M317.411 191.123C315.589 191.123 314.145 190.133 313.718 189.803C311.558 190.445 309.781 190.372 308.441 189.584C306.83 188.637 306.469 187.014 306.454 186.944C306.44 186.878 306.449 186.811 306.48 186.751C306.532 186.65 311.641 176.666 311.477 172.218C311.347 168.669 301.198 166.688 297.299 166.226C297.227 166.217 297.161 166.18 297.112 166.125C297.083 166.09 296.395 165.258 296.511 163.976C296.615 162.824 297.317 161.703 298.599 160.64C304.505 155.745 311.393 148.58 311.462 148.508C311.531 148.436 311.633 148.404 311.728 148.424L337.272 153.651C337.388 153.675 337.474 153.764 337.498 153.88C337.639 154.602 340.949 171.644 339.897 175.135C337.33 183.664 334.884 187.906 332.669 187.727C332.126 187.684 331.704 187.45 331.415 187.025C330.91 186.286 330.933 185.09 331.066 184.123C330.425 185.032 329.35 186.45 327.603 188.515C324.403 192.296 321.094 190.676 320.299 190.199C319.294 190.878 318.304 191.117 317.409 191.117L317.411 191.123ZM313.781 189.194C313.851 189.194 313.92 189.22 313.972 189.266C314.096 189.373 317.013 191.868 320.129 189.624C320.23 189.552 320.369 189.552 320.47 189.624C320.606 189.725 323.872 192.039 327.17 188.146C330.61 184.082 331.418 182.531 331.424 182.517C331.493 182.384 331.652 182.324 331.788 182.381C331.927 182.436 331.999 182.589 331.955 182.734C331.719 183.516 331.245 185.754 331.895 186.708C332.083 186.982 332.351 187.129 332.715 187.158C334.592 187.297 336.937 182.976 339.349 174.976C340.302 171.808 337.339 156.098 336.972 154.186L311.771 149.028C310.859 149.972 304.491 156.513 298.969 161.088C296.193 163.387 297.201 165.25 297.49 165.671C298.995 165.862 311.884 167.618 312.054 172.201C312.216 176.605 307.615 185.798 307.044 186.918C307.142 187.25 307.555 188.397 308.742 189.09C309.963 189.803 311.63 189.844 313.692 189.206C313.721 189.197 313.749 189.194 313.775 189.194H313.781Z" fill="#1D1D1D"/>
<path d="M315.878 176.914C315.944 182.133 313.01 186.693 308.675 188.946C306.882 189.879 297.377 194.225 295.22 194.254C287.844 194.349 282.36 184.466 282.264 177.09C282.212 172.998 290.903 169.481 293.767 166.994C296.069 164.996 299.061 163.771 302.348 163.728C309.724 163.632 315.783 169.535 315.878 176.911V176.914Z" fill="#5B9852"/>
<path d="M293.282 194.788C299.952 194.163 304.853 188.25 304.228 181.58C303.603 174.91 297.69 170.009 291.02 170.634C284.35 171.259 279.45 177.172 280.075 183.842C280.699 190.512 286.612 195.412 293.282 194.788Z" fill="#D3EDCC"/>
<path d="M265.453 167.771L322.024 208.041C322.024 208.041 315.188 212.431 301.692 206.288C288.199 200.145 272.298 187.816 270.568 184.397C268.838 180.975 269.367 179.45 269.367 179.45L254.557 168.631L265.453 167.771Z" fill="white"/>
<path d="M314.983 209.869C311.664 209.869 307.197 209.113 301.571 206.551C288.349 200.532 272.191 188.247 270.308 184.527C268.884 181.714 268.951 180.12 269.04 179.571L254.384 168.865C254.286 168.793 254.242 168.669 254.277 168.554C254.309 168.438 254.413 168.354 254.531 168.346L265.427 167.485C265.494 167.479 265.563 167.499 265.618 167.537L322.188 207.807C322.266 207.862 322.312 207.955 322.31 208.05C322.31 208.145 322.257 208.235 322.177 208.287C322.012 208.394 319.618 209.872 314.983 209.872V209.869ZM255.354 168.857L269.534 179.213C269.635 179.288 269.679 179.421 269.638 179.539C269.635 179.551 269.19 181.03 270.825 184.264C272.439 187.456 288.136 199.799 301.81 206.022C313.207 211.209 319.849 208.778 321.472 208.001L265.37 168.063L255.354 168.854V168.857Z" fill="#1D1D1D"/>
<path d="M269.338 179.565L273.881 173.769L265.453 167.768L254.557 168.629L269.367 179.447C269.367 179.447 269.352 179.488 269.338 179.563V179.565Z" fill="#1D1D1D"/>
<path d="M234.93 141.366L215.283 168.184C215.283 168.184 235.294 176.452 244.059 178.52C249.76 179.866 248.807 175.167 248.807 175.167C248.807 175.167 252.662 176.493 254.476 175.958C257.286 175.132 257.37 172.239 257.37 172.239C257.37 172.239 259.649 172.877 261.422 171.826C263.195 170.772 263.253 168.089 263.253 168.089C263.253 168.089 268.942 174.985 272.402 173.454C275.862 171.924 270.008 161.868 266.551 155.621C263.091 149.374 234.933 141.372 234.933 141.372L234.93 141.366Z" fill="white"/>
<path d="M245.902 179.049C245.333 179.049 244.697 178.965 243.993 178.8C235.306 176.753 215.373 168.533 215.173 168.45C215.092 168.415 215.029 168.346 215.006 168.262C214.983 168.178 214.997 168.086 215.052 168.013L234.702 141.196C234.774 141.097 234.898 141.057 235.014 141.089C236.169 141.418 263.328 149.195 266.805 155.474L267.417 156.577C270.45 162.027 274.603 169.492 273.592 172.51C273.401 173.076 273.043 173.48 272.523 173.712C269.445 175.078 264.91 170.387 263.478 168.779C263.337 169.694 262.9 171.283 261.575 172.068C260.105 172.94 258.346 172.727 257.627 172.585C257.5 173.42 256.942 175.531 254.563 176.23C253.032 176.68 250.231 175.909 249.151 175.574C249.194 176.227 249.133 177.417 248.293 178.231C247.733 178.774 246.933 179.046 245.907 179.046L245.902 179.049ZM215.734 168.057C218.411 169.154 236.108 176.348 244.123 178.237C245.902 178.656 247.167 178.514 247.886 177.818C248.847 176.888 248.527 175.236 248.521 175.222C248.501 175.121 248.536 175.017 248.613 174.948C248.691 174.878 248.801 174.858 248.897 174.893C248.934 174.904 252.686 176.181 254.392 175.678C256.963 174.922 257.075 172.334 257.078 172.227C257.081 172.138 257.124 172.057 257.197 172.005C257.269 171.953 257.361 171.935 257.445 171.958C257.468 171.964 259.628 172.551 261.272 171.574C262.883 170.618 262.961 168.103 262.961 168.077C262.961 167.956 263.042 167.849 263.155 167.811C263.27 167.771 263.394 167.808 263.472 167.901C263.527 167.967 269.061 174.61 272.281 173.186C272.65 173.021 272.899 172.741 273.034 172.328C273.964 169.553 269.716 161.914 266.903 156.86L266.291 155.757C263.077 149.955 237.529 142.423 235.04 141.701L215.728 168.057H215.734Z" fill="#1D1D1D"/>
<path d="M263.129 167.895C263.129 167.895 258.597 161.039 257.604 160.378C256.61 159.716 253.8 158.229 253.8 158.229L263.129 167.898V167.895Z" fill="white"/>
<path d="M263.129 168.184C263.036 168.184 262.944 168.138 262.886 168.054C261.078 165.316 258.135 161.079 257.442 160.617C256.475 159.97 253.691 158.498 253.665 158.483C253.523 158.408 253.471 158.235 253.543 158.093C253.618 157.952 253.792 157.9 253.933 157.972C254.049 158.033 256.769 159.474 257.763 160.138C258.773 160.814 262.9 167.032 263.368 167.736C263.455 167.869 263.42 168.048 263.287 168.138C263.238 168.169 263.183 168.187 263.129 168.187V168.184Z" fill="#1D1D1D"/>
<path d="M257.37 172.525C257.309 172.525 257.249 172.507 257.197 172.467L251.325 168.086C251.198 167.99 251.172 167.808 251.268 167.681C251.363 167.554 251.545 167.528 251.672 167.624L257.543 172.005C257.67 172.1 257.696 172.282 257.601 172.409C257.543 172.484 257.457 172.525 257.37 172.525Z" fill="#1D1D1D"/>
<path d="M248.807 175.453C248.761 175.453 248.712 175.441 248.668 175.418L243.753 172.735C243.614 172.66 243.562 172.484 243.637 172.343C243.713 172.204 243.889 172.152 244.03 172.227L248.946 174.91C249.084 174.985 249.136 175.161 249.061 175.303C249.009 175.398 248.911 175.453 248.807 175.453Z" fill="#1D1D1D"/>
<path d="M313.781 189.483C313.781 189.483 316.123 188.273 319.381 184.146C321.14 181.916 324.094 173.737 324.094 173.737L313.781 189.486V189.483Z" fill="white"/>
<path d="M313.781 189.772C313.677 189.772 313.576 189.714 313.524 189.616C313.452 189.474 313.507 189.301 313.648 189.226C313.671 189.214 315.985 187.981 319.153 183.967C320.863 181.798 323.791 173.72 323.82 173.639C323.875 173.489 324.039 173.411 324.19 173.466C324.34 173.521 324.418 173.685 324.363 173.836C324.242 174.171 321.374 182.084 319.606 184.325C316.352 188.455 314.012 189.691 313.914 189.74C313.871 189.763 313.827 189.772 313.781 189.772Z" fill="#1D1D1D"/>
<path d="M320.297 189.858C320.678 189.437 324.063 187.054 326.41 183.236C327.395 181.636 330.055 176.467 330.055 176.467L320.297 189.861V189.858Z" fill="white"/>
<path d="M320.297 190.147C320.227 190.147 320.158 190.121 320.103 190.072C319.985 189.965 319.976 189.783 320.083 189.665C320.169 189.57 320.34 189.428 320.623 189.191C321.717 188.279 324.285 186.141 326.162 183.086C327.13 181.512 329.769 176.386 329.798 176.334C329.87 176.192 330.046 176.135 330.188 176.21C330.33 176.282 330.384 176.458 330.312 176.6C330.202 176.81 327.635 181.798 326.656 183.389C324.727 186.526 322.11 188.706 320.993 189.636C320.764 189.827 320.568 189.991 320.507 190.055C320.45 190.118 320.372 190.15 320.294 190.15L320.297 190.147Z" fill="#1D1D1D"/>
<path d="M331.678 182.65C331.678 182.65 333.44 180.371 334.612 177.506L331.678 182.65Z" fill="white"/>
<path d="M331.678 182.939C331.618 182.939 331.554 182.918 331.502 182.878C331.375 182.78 331.352 182.598 331.45 182.474C331.467 182.451 333.203 180.189 334.344 177.397C334.404 177.249 334.575 177.18 334.719 177.238C334.867 177.298 334.939 177.466 334.878 177.613C333.706 180.481 331.979 182.728 331.906 182.823C331.849 182.895 331.765 182.936 331.678 182.936V182.939Z" fill="#1D1D1D"/>
<path d="M285.299 202.828C289.598 198.53 289.598 191.561 285.299 187.263C281.001 182.965 274.033 182.965 269.734 187.263C265.436 191.561 265.436 198.53 269.734 202.828C274.033 207.126 281.001 207.126 285.299 202.828Z" fill="#5B9852"/>
<path d="M275.547 206.99C281.311 206.99 285.984 202.317 285.984 196.553C285.984 190.788 281.311 186.115 275.547 186.115C269.783 186.115 265.11 190.788 265.11 196.553C265.11 202.317 269.783 206.99 275.547 206.99Z" fill="#D3EDCC"/>
<path d="M279.24 213.926C284.856 211.6 287.523 205.161 285.197 199.545C282.87 193.93 276.432 191.263 270.816 193.589C265.2 195.915 262.534 202.353 264.86 207.969C267.186 213.585 273.624 216.252 279.24 213.926Z" fill="#5B9852"/>
<path d="M273.058 215.703C278.822 215.703 283.495 211.03 283.495 205.266C283.495 199.501 278.822 194.829 273.058 194.829C267.293 194.829 262.62 199.501 262.62 205.266C262.62 211.03 267.293 215.703 273.058 215.703Z" fill="#D3EDCC"/>
<path d="M340.331 168.626L305.995 154.321L322.668 122.308L347.614 138.449L340.331 168.626Z" fill="white"/>
<path d="M340.51 169.004C340.472 169.004 340.435 168.998 340.4 168.981L305.885 154.59C305.81 154.558 305.753 154.498 305.724 154.423C305.698 154.347 305.701 154.264 305.738 154.191L322.413 122.175C322.486 122.034 322.662 121.979 322.803 122.054C322.945 122.126 323 122.302 322.925 122.444L306.397 154.18L340.622 168.45C340.77 168.51 340.839 168.681 340.778 168.828C340.732 168.938 340.625 169.007 340.513 169.007L340.51 169.004Z" fill="#1D1D1D"/>
<path d="M234.93 141.655C234.878 141.655 234.823 141.64 234.774 141.608C234.638 141.522 234.601 141.346 234.685 141.21L235.08 140.586L206.186 126.926C206.041 126.857 205.981 126.686 206.047 126.542C206.117 126.397 206.287 126.337 206.431 126.403L235.62 140.205C235.695 140.24 235.75 140.306 235.773 140.387C235.797 140.468 235.785 140.551 235.739 140.621L235.167 141.519C235.112 141.606 235.02 141.652 234.924 141.652L234.93 141.655Z" fill="#1D1D1D"/>
<path d="M295.295 127.957C295.185 127.957 295.081 127.893 295.032 127.789L286.709 109.531C286.643 109.387 286.709 109.214 286.854 109.147C286.998 109.081 287.171 109.147 287.238 109.292L295.561 127.55C295.627 127.694 295.561 127.867 295.416 127.934C295.379 127.951 295.336 127.96 295.298 127.96L295.295 127.957Z" fill="#1D1D1D"/>
<path d="M222.466 134.209C217.648 127.443 224.106 116.783 224.106 116.783L223.8 112.376L222.468 134.209H222.466Z" fill="white"/>
<path d="M222.466 134.498C222.376 134.498 222.286 134.455 222.229 134.377C217.521 127.769 223.179 117.782 223.808 116.714L223.508 112.396C223.497 112.238 223.618 112.099 223.777 112.087C223.936 112.082 224.074 112.197 224.086 112.356L224.392 116.763C224.395 116.824 224.38 116.881 224.351 116.933C224.288 117.037 218.047 127.512 222.699 134.042C222.792 134.172 222.763 134.351 222.633 134.443C222.581 134.478 222.523 134.498 222.466 134.498Z" fill="#1D1D1D"/>
<path d="M287.37 169.102C287.246 169.102 287.131 169.021 287.093 168.897L259.669 78.1735C259.623 78.0205 259.709 77.8587 259.862 77.8125C260.015 77.7663 260.177 77.853 260.223 78.006L287.648 168.73C287.694 168.883 287.607 169.044 287.454 169.091C287.425 169.099 287.399 169.102 287.37 169.102Z" fill="#1D1D1D"/>
<path d="M258.086 85.0181C257.962 85.0181 257.846 84.9372 257.809 84.8102L257.246 82.8925C257.2 82.7395 257.289 82.5777 257.442 82.5344C257.595 82.4882 257.757 82.5777 257.8 82.7308L258.363 84.6484C258.41 84.8015 258.32 84.9632 258.167 85.0065C258.141 85.0152 258.112 85.0181 258.086 85.0181Z" fill="#1D1D1D"/>
<path d="M233.818 89.6476C233.694 89.6476 233.579 89.5667 233.541 89.4396L232.978 87.522C232.932 87.3689 233.021 87.2072 233.174 87.1639C233.327 87.1177 233.489 87.2072 233.532 87.3603L234.096 89.2779C234.142 89.431 234.052 89.5927 233.899 89.636C233.873 89.6447 233.844 89.6476 233.818 89.6476Z" fill="#1D1D1D"/>
<path d="M265.196 116.284C265.072 116.284 264.957 116.203 264.919 116.076L264.356 114.158C264.31 114.005 264.399 113.843 264.552 113.8C264.705 113.754 264.867 113.843 264.911 113.996L265.474 115.914C265.52 116.067 265.43 116.229 265.277 116.272C265.251 116.281 265.222 116.284 265.196 116.284Z" fill="#1D1D1D"/>
<path d="M240.929 120.913C240.804 120.913 240.689 120.832 240.651 120.705L240.088 118.787C240.042 118.634 240.131 118.473 240.285 118.429C240.438 118.383 240.599 118.473 240.643 118.626L241.206 120.543C241.252 120.696 241.162 120.858 241.009 120.902C240.983 120.91 240.955 120.913 240.929 120.913Z" fill="#1D1D1D"/>
<path d="M272.307 147.549C272.182 147.549 272.067 147.468 272.029 147.341L271.466 145.424C271.42 145.27 271.51 145.109 271.663 145.065C271.816 145.019 271.977 145.109 272.021 145.262L272.584 147.179C272.63 147.332 272.541 147.494 272.388 147.538C272.362 147.546 272.333 147.549 272.307 147.549Z" fill="#1D1D1D"/>
<path d="M236.755 81.5178L232.392 64.5306L249.902 59.439L258.343 78.3121L236.755 81.5178Z" fill="white"/>
<path d="M236.755 81.8066C236.625 81.8066 236.51 81.72 236.475 81.59L232.112 64.5999C232.074 64.4497 232.161 64.2938 232.311 64.2505L249.821 59.1618C249.959 59.1214 250.107 59.1907 250.164 59.3207L258.606 78.1937C258.644 78.2775 258.638 78.3699 258.594 78.4508C258.551 78.5316 258.473 78.5836 258.384 78.5981L236.796 81.8037C236.796 81.8037 236.767 81.8066 236.753 81.8066H236.755ZM232.741 64.727L236.972 81.1944L257.924 78.0811L249.74 59.7856L232.741 64.727Z" fill="#1D1D1D"/>
<path d="M246.165 64.8974C246.165 64.8974 245.46 73.7462 236.068 75.0198C226.673 76.2935 223.216 70.4135 222.047 64.5277C220.874 58.642 220.84 44.9298 220.84 44.9298C220.84 44.9298 223.052 46.7636 226.806 45.3803C230.561 43.9969 232.08 41.7761 234.665 43.6042C237.249 45.4323 237.353 49.2878 238.491 52.5194C239.629 55.7511 242.523 56.3345 242.523 56.3345C242.523 56.3345 243.118 50.1859 247.562 52.3404C252.004 54.4948 251.964 63.1155 246.165 64.8945V64.8974Z" fill="white"/>
<path d="M233.596 75.4819C225.683 75.4819 222.78 69.703 221.764 64.5826C220.6 58.7373 220.554 45.0655 220.551 44.9298C220.551 44.8171 220.614 44.716 220.715 44.667C220.817 44.6179 220.938 44.6352 221.024 44.7045C221.111 44.7738 223.17 46.4113 226.708 45.1059C227.837 44.6901 228.764 44.1962 229.582 43.7572C231.502 42.732 232.891 41.9898 234.832 43.3616C236.77 44.7305 237.379 47.2026 237.971 49.591C238.205 50.5354 238.445 51.5086 238.765 52.4183C239.623 54.8587 241.544 55.7136 242.283 55.9619C242.422 55.0897 242.924 52.8082 244.481 51.9332C245.376 51.4307 246.456 51.4797 247.689 52.0776C249.893 53.1461 251.219 55.8695 250.987 58.8528C250.806 61.2152 249.509 64.0714 246.43 65.1082C246.251 66.4367 244.836 74.113 236.106 75.2971C235.219 75.4184 234.381 75.4733 233.596 75.4733V75.4819ZM221.131 45.464C221.154 48.0546 221.308 59.338 222.327 64.47C223.886 72.2993 228.496 75.7563 236.028 74.731C245.087 73.5036 245.87 64.958 245.876 64.8714C245.884 64.753 245.965 64.6519 246.078 64.6173C249.009 63.7191 250.239 61.0275 250.41 58.8095C250.624 56.0601 249.428 53.5649 247.435 52.5974C246.384 52.0862 245.486 52.0342 244.764 52.4386C243.123 53.3569 242.814 56.3316 242.812 56.3605C242.803 56.4413 242.762 56.5164 242.696 56.5655C242.63 56.6146 242.546 56.6319 242.468 56.6175C242.344 56.5915 239.401 55.9619 238.22 52.6147C237.89 51.6819 237.645 50.6913 237.411 49.7354C236.819 47.3441 236.262 45.0857 234.5 43.8381C232.851 42.6713 231.722 43.272 229.853 44.2713C229.018 44.716 228.074 45.2214 226.907 45.6518C224.014 46.7203 222.001 45.9521 221.131 45.464Z" fill="#1D1D1D"/>
<path d="M245.567 60.7907C245.417 60.7907 245.292 60.6751 245.278 60.525C245.272 60.447 245.134 58.6276 245.598 57.3944C246.39 55.2948 247.609 55.6442 247.661 55.6616C247.814 55.7078 247.897 55.8695 247.851 56.0226C247.805 56.1728 247.646 56.2565 247.496 56.2161C247.453 56.2074 246.722 56.0515 246.139 57.5994C245.72 58.7113 245.853 60.4643 245.853 60.4816C245.864 60.6405 245.746 60.7791 245.587 60.7935C245.578 60.7935 245.572 60.7935 245.564 60.7935L245.567 60.7907Z" fill="#1D1D1D"/>
<path d="M246.731 44.6265C247.198 44.8605 252.712 47.5578 252.478 54.2407C252.478 54.2407 260.451 54.8269 263.03 59.3986C265.609 63.9704 264.321 67.6063 264.321 67.6063C264.321 67.6063 271.169 70.76 272.555 79.0688C273.15 82.6355 272.792 87.6289 272.792 87.6289C272.792 87.6289 282.496 97.7426 284.254 100.322C286.013 102.901 275.342 107.828 273.468 106.418C271.59 105.012 270.415 88.8158 270.415 88.8158C270.415 88.8158 267.637 88.5732 263.877 85.9625C259.597 82.9907 259.163 80.2673 259.163 80.2673L250.43 60.5394C250.43 60.5394 251.412 58.2983 250.289 55.4941C249.168 52.6927 247.655 51.9361 246.058 51.8783C244.461 51.8234 243.704 52.6061 243.227 53.6429C242.751 54.6797 242.555 56.2218 242.555 56.2218C242.555 56.2218 240.117 55.5778 238.997 53.6429C237.876 51.7079 237.818 48.6813 237.818 48.6813L246.733 44.6179L246.731 44.6265Z" fill="#1D1D1D"/>
<path d="M220.328 50.2206C220.328 50.2206 228.811 51.6646 236.851 50.6567C244.891 49.6488 251.06 48.1903 251.06 48.1903L251.146 32.3034C251.146 32.3034 260.489 28.1794 260.007 16.7949C259.527 5.41035 247.701 8.56983 247.701 8.56983C247.701 8.56983 247.031 1.2603 237.997 1.45957C228.966 1.66173 228.663 7.90559 228.663 7.90559C228.663 7.90559 222.879 3.56203 215.918 7.14027C208.958 10.7185 212.618 15.7754 212.618 15.7754C212.618 15.7754 206.888 19.3565 207.679 25.5888C208.473 31.8211 213.527 34.172 219.141 35.2203L220.323 50.2235L220.328 50.2206Z" fill="white"/>
<path d="M230.714 51.3007C225.036 51.3007 220.343 50.5152 220.279 50.5065C220.149 50.4834 220.051 50.3765 220.04 50.2437L218.876 35.4629C214.31 34.5849 208.28 32.5807 207.396 25.6264C206.686 20.0323 211.127 16.483 212.225 15.6974C211.861 15.088 211.044 13.4361 211.508 11.4954C211.945 9.67304 213.386 8.12219 215.789 6.88612C221.793 3.79885 227.006 6.52224 228.444 7.41752C228.741 5.90998 230.278 1.34694 237.989 1.17366C246.075 0.985938 247.663 6.76772 247.935 8.21749C249.174 7.94313 253.766 7.15471 257.026 9.54886C259.054 11.0391 260.154 13.4737 260.293 16.7833C260.74 27.3707 252.714 31.8413 251.429 32.4854L251.343 48.1903C251.343 48.3232 251.25 48.4387 251.12 48.4705C251.06 48.4849 244.842 49.9462 236.88 50.9426C234.806 51.2025 232.698 51.2978 230.708 51.2978L230.714 51.3007ZM220.597 49.9722C221.983 50.1859 229.625 51.2718 236.813 50.3736C243.903 49.4841 249.598 48.2307 250.771 47.9622L250.858 32.3034C250.858 32.1908 250.927 32.0868 251.031 32.0406C251.123 32.0002 260.186 27.853 259.721 16.8064C259.588 13.6816 258.568 11.3943 256.688 10.0138C253.188 7.44351 247.831 8.83552 247.776 8.84996C247.695 8.87307 247.606 8.85574 247.536 8.80664C247.467 8.75755 247.421 8.68246 247.415 8.59582C247.389 8.30702 246.65 1.54621 238.006 1.74837C229.368 1.94187 228.969 7.67744 228.955 7.92003C228.949 8.02688 228.886 8.12219 228.787 8.16551C228.689 8.21172 228.577 8.20016 228.493 8.13663C228.435 8.09331 222.763 3.94614 216.054 7.3973C213.81 8.5525 212.47 9.9734 212.072 11.6196C211.555 13.7625 212.84 15.5848 212.854 15.605C212.901 15.6685 212.918 15.7523 212.903 15.8303C212.889 15.9082 212.84 15.9776 212.773 16.0209C212.719 16.0555 207.208 19.5818 207.968 25.5513C208.615 30.6428 212.184 33.6232 219.196 34.9344C219.323 34.9575 219.422 35.0643 219.43 35.1972L220.594 49.9722H220.597Z" fill="#5B9852"/>
<path d="M246.502 33.268C243.508 33.268 239.667 32.4305 236.744 28.9071C236.643 28.7858 236.66 28.601 236.781 28.4999C236.903 28.3988 237.085 28.4162 237.189 28.5375C242.488 34.9199 250.964 32.0608 251.051 32.0291C251.201 31.9771 251.366 32.0551 251.418 32.2081C251.47 32.3583 251.392 32.5229 251.239 32.5749C251.195 32.5893 249.191 33.2651 246.502 33.2651V33.268Z" fill="#5B9852"/>
<path d="M232.73 35.4715C230.483 35.4715 227.872 34.8939 225.001 33.2333C224.863 33.1525 224.816 32.9763 224.897 32.8377C224.975 32.6991 225.151 32.6529 225.293 32.7337C234.321 37.9523 240.637 32.0781 240.7 32.0175C240.816 31.9078 240.998 31.9106 241.108 32.0262C241.217 32.1417 241.215 32.3236 241.099 32.4334C241.053 32.4767 237.838 35.4687 232.73 35.4687V35.4715Z" fill="#5B9852"/>
<path d="M224.245 35.8152C221.1 35.8152 219.124 35.5062 219.101 35.5033C218.945 35.4773 218.835 35.33 218.861 35.1741C218.887 35.0152 219.038 34.9084 219.191 34.9344C219.219 34.9402 222.237 35.4109 226.76 35.1741C226.916 35.1683 227.055 35.2896 227.063 35.4484C227.072 35.6073 226.948 35.743 226.789 35.7517C225.876 35.7979 225.024 35.8181 224.242 35.8181L224.245 35.8152Z" fill="#5B9852"/>
</g>
<defs>
<clipPath id="clip0_206_894">
<rect width="359.331" height="239.99" fill="white" transform="translate(0 0.552734)"/>
</clipPath>
</defs>
</svg>
