<svg width="124" height="42" viewBox="0 0 124 42" fill="none" xmlns="http://www.w3.org/2000/svg">
<g clip-path="url(#clip0_240_12)">
<path d="M16.1092 24.7377C16.1092 25 16.0444 25.1311 15.7206 25.1967C13.2597 25.459 9.68168 25.8524 7.90077 25.8524C4.27419 25.8524 0 24.6721 0 19.1475C0 13.6229 5.00274 13.4262 7.6903 13.4262C9.01789 13.4262 11.6731 13.6885 12.6283 13.8196C12.6283 10.0491 10.4588 9.4098 7.23698 9.4098C5.52083 9.4098 3.9342 9.54095 2.75232 9.63931H2.65518C2.4609 9.63931 2.36376 9.54095 2.33138 9.37702L2.00757 7.37702V7.34423C2.00757 7.1803 2.13709 7.08193 2.33138 7.08193C3.98277 6.85243 6.31414 6.68849 7.75506 6.68849C12.7578 6.68849 16.093 8.26226 16.093 13.3278V24.7541L16.1092 24.7377ZM3.28659 3.93439C2.25042 3.93439 1.57044 3.47538 1.57044 2.22948C1.57044 0.983575 2.21804 0.458984 3.28659 0.458984C4.35514 0.458984 5.00274 0.950788 5.00274 2.22948C5.00274 3.50816 4.38752 3.93439 3.28659 3.93439ZM12.7254 16.4262C12.7254 16.2295 12.6607 16.0983 12.3692 16.0983H8.0141C5.77987 16.0983 3.52944 16.3934 3.52944 19.1475C3.52944 22.3934 5.86082 22.8196 7.8522 22.8196H12.3692C12.6607 22.8196 12.7254 22.7541 12.7254 22.4918V16.4426V16.4262ZM12.9521 3.93439C11.8835 3.93439 11.2359 3.47538 11.2359 2.22948C11.2359 0.983575 11.8512 0.458984 12.9521 0.458984C14.053 0.458984 14.7006 0.950788 14.7006 2.22948C14.7006 3.50816 14.0206 3.93439 12.9521 3.93439Z" fill="#1D1D1D"/>
<path d="M37.5287 25.295C37.5287 25.4261 37.4315 25.5245 37.302 25.5245H33.9668C33.7078 25.5245 33.6107 25.4261 33.5135 25.2294L28.9641 18.1966C28.8993 18.0982 28.8022 17.9671 28.6079 17.9671H24.5928C24.3985 17.9671 24.3337 18.0327 24.3337 18.2294V25.1966C24.3337 25.4261 24.2366 25.5245 24.0423 25.5245H21.1928C20.9662 25.5245 20.9014 25.4261 20.9014 25.1966V3.63922C20.9014 3.37693 21.0309 3.27856 21.1928 3.27856H29.0774C33.303 3.27856 36.8649 4.98348 36.8649 10.2458C36.8649 14.131 34.9544 16.3933 32.5097 17.3441C33.7078 19.2458 37.4801 25.131 37.4801 25.131C37.5125 25.1966 37.5125 25.2294 37.5125 25.295H37.5287ZM28.5108 5.85233H24.5604C24.3985 5.85233 24.3013 5.98348 24.3013 6.11463V15.1146C24.3013 15.3113 24.3661 15.3769 24.5928 15.3769H28.2841C31.4897 15.3769 33.3516 14.0654 33.3516 10.4425C33.3516 7.09824 31.5059 5.86873 28.5108 5.86873V5.85233Z" fill="#1D1D1D"/>
<path d="M57.6044 17.6393H44.1018C43.9076 17.6393 43.8104 17.672 43.8104 17.9671C43.9399 22.0819 46.6923 22.9999 50.6588 22.9999C52.1483 22.9999 53.7997 22.8688 55.5321 22.7376C55.6616 22.7376 55.8235 22.7704 55.8235 22.9671V23.0327L55.5321 25.0327C55.4673 25.2622 55.3702 25.2622 55.1435 25.3278C53.5569 25.5573 51.6141 25.754 49.5579 25.754C44.0371 25.754 40.3134 23.4261 40.3134 16.1311C40.3134 8.83598 44.3123 6.70483 49.1693 6.70483C55.0787 6.70483 57.8958 10.0491 57.8958 17.3114C57.8958 17.5409 57.7987 17.6393 57.6044 17.6393ZM48.9751 9.32778C45.8018 9.32778 43.778 11.0983 43.778 14.7212C43.778 14.9835 43.8428 15.0491 44.0695 15.0491H54.0911C54.3178 15.0491 54.4473 15.0163 54.4473 14.754C54.3502 11.0819 52.2131 9.32778 48.9913 9.32778H48.9751Z" fill="#1D1D1D"/>
<path d="M66.9461 25.7541C65.3918 25.7541 63.5785 25.5902 61.6843 25.2623C61.4253 25.1967 61.3605 25.1311 61.3605 24.9016V22.9016C61.3605 22.7377 61.4576 22.6393 61.6195 22.6393H61.7167C62.5909 22.6721 64.6633 22.8361 66.3632 22.8361C68.6622 22.8361 71.3984 22.7377 71.3984 20.1803C71.3984 15.7705 61.15 17.7541 61.15 11.4426C61.15 7.59015 65.149 6.67212 68.646 6.67212C70.2003 6.67212 72.1431 6.93441 73.584 7.16392C73.8107 7.2295 73.9402 7.36064 73.9402 7.52458L73.6164 9.42622C73.6164 9.55736 73.5193 9.65573 73.325 9.65573H73.2602C72.2241 9.55737 70.5727 9.36064 68.646 9.36064C66.7194 9.36064 64.5661 9.459 64.5661 11.4918C64.5661 15 74.7821 13.4262 74.7821 19.9016C74.7821 24.0656 71.6412 25.7541 66.9299 25.7541H66.9461Z" fill="#5B9852"/>
<path d="M88.1065 25.0984C88.0418 25.2951 87.9446 25.3607 87.718 25.3935C86.3256 25.5574 85.5161 25.6886 84.3828 25.6886C81.3067 25.6886 79.9629 24.3115 79.9629 21.0164V9.40987C79.9629 9.18036 79.8658 9.082 79.6391 9.082H77.4373C77.2106 9.082 77.1135 8.95085 77.1135 8.72134V7.14757C77.1135 6.95085 77.2106 6.85249 77.4373 6.85249H79.6715C79.8658 6.85249 79.9629 6.75413 79.9629 6.52462V2.22954C79.9629 2.00003 80.0277 1.90167 80.2867 1.8361L83.039 1.54102C83.2657 1.54102 83.3952 1.63938 83.3952 1.86888V6.50823C83.3952 6.73774 83.46 6.8361 83.719 6.8361H87.2161C87.4751 6.8361 87.5399 6.93446 87.5399 7.16397V8.73774C87.5399 8.93446 87.4751 9.03282 87.2161 9.03282H83.719C83.4924 9.03282 83.3952 9.16397 83.3952 9.39347V20.1312C83.3952 22.0328 83.6866 22.8197 86.1152 22.8197H88.0904C88.3818 22.8197 88.4142 22.9509 88.4142 23.1476L88.1227 25.1148L88.1065 25.0984Z" fill="#5B9852"/>
<path d="M98.873 25.8523C94.1293 25.8523 89.6284 22.7704 89.6284 16.3605C89.6284 9.95071 93.6274 6.60645 98.9053 6.60645C104.183 6.60645 108.215 9.62284 108.215 16.3605C108.215 22.7048 103.892 25.8523 98.873 25.8523ZM98.873 9.19661C95.6673 9.19661 93.0607 10.9671 93.0607 16.3605C93.0607 21.0655 95.4569 23.0655 98.9377 23.0655C102.419 23.0655 104.847 20.9999 104.847 16.3605C104.847 10.9343 102.16 9.19661 98.873 9.19661Z" fill="#5B9852"/>
<path d="M0 38.246V35.2952H57.8634V38.246H0Z" fill="#1D1D1D"/>
<path d="M20.8205 33.4589C20.8205 31.7048 21.9052 31.6229 24.1394 31.6229H103.115C103.115 31.6229 106.401 25.5901 114.237 25.5901C118.301 25.5901 124.016 27.5081 124.016 33.3114C124.016 40.3278 117.33 41.4589 114.043 41.4589C106.838 41.4589 103.131 35.3278 103.131 35.3278H24.2366C21.9376 35.3278 20.8205 35.4262 20.8205 33.4589Z" fill="#5B9852"/>
</g>
<defs>
<clipPath id="clip0_240_12">
<rect width="124" height="41" fill="white" transform="translate(0 0.458984)"/>
</clipPath>
</defs>
</svg>
