<svg width="320" height="252" viewBox="0 0 320 252" fill="none" xmlns="http://www.w3.org/2000/svg">
<path d="M227.149 166.513C225.804 165.934 191.351 251.174 191.351 251.174H57.8308L62.2028 242.104C62.2028 242.104 29.2542 242.252 29.1553 216.88C29.091 199.644 66.6985 154.475 90.7349 127.604C102.822 114.092 120.677 107.233 138.704 109.137C187.029 114.246 280.331 124.548 280.019 127.842C279.816 129.988 294.258 117.648 294.258 117.648C294.258 117.648 325.881 136.066 318.27 158.911C310.653 181.76 274.747 187.057 227.139 166.508L227.149 166.513Z" fill="white"/>
<path d="M191.351 251.668C191.559 251.668 191.752 251.539 191.821 251.332C193.849 245.352 223.311 174.519 227.094 167.214C243.48 173.649 261.542 179.905 279.243 179.905C287.729 179.905 296.137 178.466 304.238 174.92C309.995 172.452 314.699 168.035 317.478 162.481C320.307 156.423 320.713 150.077 318.69 143.608C314.981 133.82 307.186 125.24 294.861 117.351C294.703 117.247 294.495 117.247 294.337 117.351C292.156 118.691 290.252 120.323 288.407 121.901C285.885 124.058 283.501 126.095 280.499 127.44C278.768 126.115 276.71 125.714 274.712 125.324C273.867 125.16 273.065 125.002 272.289 124.78C272.269 124.775 272.249 124.77 272.229 124.765C250.592 121.318 228.118 118.301 201.5 115.264C201.238 115.224 200.986 115.427 200.951 115.699C200.921 115.971 201.114 116.214 201.386 116.248C227.98 119.28 250.434 122.297 272.046 125.739C272.858 125.967 273.703 126.135 274.519 126.293C276.577 126.694 278.52 127.074 280.103 128.39C280.247 128.509 280.444 128.538 280.613 128.464C283.882 127.065 286.508 124.819 289.045 122.653C290.786 121.164 292.581 119.631 294.589 118.36C306.578 126.085 314.16 134.454 317.755 143.935C319.694 150.137 319.303 156.24 316.588 162.056C313.922 167.387 309.397 171.641 303.848 174.015C279.045 184.866 251.2 175.637 227.05 166.136C226.822 166.047 226.565 166.136 226.442 166.349C223.682 171.082 192.959 244.907 190.887 251.02C190.798 251.277 190.936 251.559 191.198 251.648C191.253 251.668 191.302 251.673 191.356 251.673L191.351 251.668Z" fill="#1D1D1D"/>
<path d="M193.473 115.635C193.72 115.635 193.933 115.447 193.963 115.195C193.992 114.923 193.8 114.68 193.528 114.646L186.416 113.835C170.579 112.025 159.135 110.714 141.498 108.938C141.216 108.919 140.984 109.112 140.954 109.379C140.924 109.651 141.127 109.893 141.394 109.923C159.021 111.698 170.461 113.004 186.297 114.819L193.409 115.63C193.409 115.63 193.448 115.63 193.463 115.63L193.473 115.635Z" fill="#1D1D1D"/>
<path d="M57.8358 251.668C58.0089 251.668 58.177 251.579 58.266 251.421C58.7754 250.526 59.6014 248.74 60.4718 246.851C61.2978 245.061 62.1484 243.216 62.6381 242.355C62.7271 242.197 62.7221 242.009 62.6331 241.856C62.5391 241.702 62.3809 241.613 62.193 241.618C50.3083 242.049 35.4166 236.989 30.8517 224.823C28.8536 219.501 29.363 213.482 32.4046 206.414C34.8528 200.732 38.3692 194.485 42.855 187.853C50.2143 176.972 58.2265 166.576 67.9993 154.306C77.4556 142.436 86.3579 132.525 95.2158 124.008C104.395 115.185 116.062 110.14 128.966 109.413C130.494 109.329 132.062 109.299 133.615 109.334C133.897 109.334 134.114 109.121 134.119 108.849C134.124 108.577 133.906 108.35 133.634 108.345C132.057 108.315 130.464 108.345 128.911 108.429C115.77 109.171 103.881 114.31 94.5283 123.301C85.6359 131.847 76.7038 141.788 67.2228 153.698C57.4401 165.983 49.4131 176.399 42.034 187.304C37.5136 193.986 33.9675 200.287 31.4946 206.029C28.3442 213.338 27.8298 219.605 29.9219 225.174C34.472 237.301 48.7999 242.637 60.7735 242.637C60.9763 242.637 61.1741 242.637 61.3769 242.637C60.8823 243.611 60.2443 244.996 59.5766 246.45C58.7507 248.241 57.9 250.085 57.4104 250.946C57.2769 251.183 57.356 251.485 57.5934 251.619C57.6725 251.663 57.7566 251.683 57.8358 251.683V251.668Z" fill="#1D1D1D"/>
<path d="M94.3898 251.173L135.736 154.138C138.13 148.539 139.149 142.451 138.694 136.377C138.135 128.949 136.305 117.237 133.244 108.409C133.071 107.905 133.451 107.385 133.986 107.415C135.994 107.524 139.273 107.816 140.603 107.944C140.87 107.969 141.103 108.142 141.211 108.389C143.971 114.695 151.083 132.198 152.067 144.894L201.159 145.819L193.458 114.863C193.305 114.255 193.809 113.681 194.433 113.755C196.455 113.988 198.483 114.22 200.501 114.453C200.852 114.492 201.144 114.735 201.248 115.071C202.519 119.181 205.051 127.866 207.168 135.378C211.09 149.281 210.126 164.108 204.473 177.402L174.397 251.173H94.3849H94.3898Z" fill="#5B9852"/>
<path d="M87.0206 195.41C87.1641 195.41 87.3124 195.346 87.4064 195.222L116.957 158.089C117.125 157.877 117.091 157.565 116.878 157.392C116.666 157.219 116.354 157.258 116.181 157.471L86.6299 194.604C86.4618 194.817 86.4964 195.128 86.7091 195.301C86.7981 195.375 86.9069 195.41 87.0157 195.41H87.0206Z" fill="#1D1D1D"/>
<path d="M280.029 150.948C280.177 150.948 280.326 150.879 280.425 150.755C280.593 150.538 280.548 150.226 280.331 150.063L262.961 136.818C262.744 136.65 262.432 136.694 262.269 136.912C262.106 137.13 262.145 137.441 262.363 137.605L279.732 150.849C279.821 150.918 279.925 150.953 280.034 150.953L280.029 150.948Z" fill="#1D1D1D"/>
<path d="M187.944 185.935C186.233 205.352 167.142 222.118 143.842 222.118C120.543 222.118 101.457 205.347 99.7411 185.935H187.939H187.944Z" fill="white"/>
<path d="M101.482 194.475C101.536 194.475 101.591 194.466 101.645 194.451C101.902 194.362 102.041 194.08 101.952 193.823C101.052 191.226 100.478 188.56 100.246 185.895C100.221 185.623 99.9834 185.415 99.7114 185.444C99.4394 185.469 99.2366 185.707 99.2614 185.979C99.5037 188.724 100.097 191.473 101.022 194.144C101.091 194.347 101.284 194.475 101.492 194.475H101.482Z" fill="#1D1D1D"/>
<path d="M143.847 192.888C119.491 192.888 99.7461 189.774 99.7461 185.934C99.7461 182.094 119.491 178.98 143.847 178.98C168.204 178.98 187.949 182.094 187.949 185.934C187.949 189.774 168.204 192.888 143.847 192.888Z" fill="white"/>
<path d="M143.847 193.383C163.67 193.383 180.768 191.355 186.396 188.338C186.638 188.209 186.727 187.908 186.599 187.67C186.47 187.428 186.168 187.339 185.931 187.467C180.52 190.371 163.215 192.393 143.852 192.393C118.154 192.393 100.246 188.991 100.246 185.934C100.246 183.051 113.248 181.241 124.579 179.98C124.851 179.95 125.044 179.703 125.014 179.436C124.984 179.164 124.732 178.971 124.47 179C106.091 181.043 99.2564 182.922 99.2564 185.939C99.2564 190.776 122.234 193.388 143.852 193.388L143.847 193.383Z" fill="#1D1D1D"/>
<path d="M58.5082 202.478C58.5082 202.478 58.5577 202.478 58.5775 202.473L78.2665 199.614C78.5386 199.575 78.7265 199.323 78.6869 199.055C78.6474 198.783 78.4001 198.591 78.1281 198.635L58.439 201.494C58.167 201.533 57.9791 201.786 58.0186 202.053C58.0532 202.3 58.2659 202.478 58.5082 202.478Z" fill="#1D1D1D"/>
<path d="M75.9174 238.225C75.9174 238.225 66.7974 217.621 79.6614 199.208L101.68 195.791C101.68 195.791 117.373 202.715 134.767 205.203C143.467 206.449 149.189 204.965 149.313 208.412C149.397 210.687 146.543 211.652 143.397 212.888C143.397 212.888 149.411 213.304 149.397 217.587C149.382 221.87 145.173 221.583 145.173 221.583C145.173 221.583 143.813 226.143 134.065 227.661C134.065 227.661 130.632 231.514 120.86 231.188C111.087 230.861 101.68 229.125 101.68 229.125L75.9174 238.225Z" fill="white"/>
<path d="M75.9174 238.72C75.9718 238.72 76.0262 238.71 76.0806 238.69L101.719 229.635C101.967 229.679 102.57 229.783 103.446 229.926C103.718 229.966 103.97 229.788 104.014 229.516C104.059 229.249 103.876 228.992 103.604 228.947C102.442 228.759 101.774 228.636 101.769 228.636C101.685 228.621 101.596 228.626 101.517 228.655L76.1993 237.597C75.0222 234.59 68.568 216.143 79.9482 199.663L101.616 196.3C103.193 196.978 118.283 203.343 134.698 205.687C137.631 206.108 140.257 206.221 142.374 206.31C146.8 206.503 148.759 206.662 148.823 208.427C148.887 210.213 146.528 211.133 143.788 212.201L143.219 212.423C143.007 212.508 142.878 212.73 142.913 212.958C142.947 213.185 143.135 213.358 143.368 213.378C143.422 213.378 148.922 213.813 148.907 217.582C148.907 218.714 148.581 219.585 147.947 220.178C146.864 221.187 145.232 221.088 145.212 221.083C144.936 221.069 144.703 221.271 144.683 221.543C144.664 221.815 144.871 222.053 145.143 222.073C145.227 222.073 147.225 222.196 148.62 220.905C149.461 220.119 149.891 219.006 149.896 217.587C149.906 214.703 147.403 213.274 145.232 212.7C147.755 211.682 149.891 210.574 149.812 208.393C149.713 205.643 146.81 205.514 142.418 205.326C140.326 205.237 137.725 205.124 134.841 204.708C117.719 202.26 102.041 195.405 101.883 195.336C101.799 195.296 101.7 195.286 101.606 195.301L79.5872 198.719C79.4537 198.739 79.3349 198.813 79.2558 198.926C66.382 217.354 75.3734 238.216 75.4674 238.423C75.5465 238.606 75.7295 238.72 75.9174 238.72Z" fill="#1D1D1D"/>
<path d="M129.742 214.872C134.005 214.872 138.254 214.348 142.423 213.304C142.69 213.24 142.848 212.968 142.784 212.706C142.72 212.439 142.448 212.275 142.186 212.345C136.181 213.843 130.024 214.249 123.876 213.546C123.604 213.512 123.362 213.71 123.327 213.982C123.298 214.254 123.491 214.496 123.763 214.531C125.756 214.758 127.754 214.872 129.747 214.872H129.742Z" fill="#1D1D1D"/>
<path d="M127.942 223.567C133.234 223.567 138.516 223.023 143.704 221.939C143.971 221.885 144.144 221.623 144.085 221.356C144.03 221.089 143.768 220.916 143.501 220.975C136.706 222.394 129.742 222.879 122.813 222.409C122.526 222.404 122.304 222.597 122.284 222.869C122.264 223.141 122.472 223.379 122.744 223.398C124.475 223.517 126.206 223.572 127.937 223.572L127.942 223.567Z" fill="#1D1D1D"/>
<path d="M124.495 228.987C127.324 228.987 130.158 228.602 132.883 227.84C133.145 227.766 133.298 227.494 133.224 227.232C133.15 226.969 132.878 226.816 132.616 226.89C128.189 228.132 123.461 228.339 118.941 227.484C118.669 227.434 118.411 227.607 118.362 227.879C118.312 228.146 118.486 228.409 118.758 228.458C120.647 228.814 122.576 228.992 124.5 228.992L124.495 228.987Z" fill="#1D1D1D"/>
<path d="M62.361 242.602C62.361 242.602 62.3808 242.602 62.3907 242.602C67.0694 242.311 71.5799 240.575 74.2754 239.536L74.8491 239.313C75.1063 239.215 75.2299 238.928 75.1359 238.675C75.037 238.418 74.7502 238.29 74.4979 238.389L73.9193 238.611C71.2782 239.63 66.8518 241.331 62.3264 241.613C62.0544 241.628 61.8467 241.865 61.8615 242.137C61.8763 242.4 62.0939 242.602 62.3561 242.602H62.361Z" fill="#1D1D1D"/>
<path d="M226.867 167.091C227.05 167.091 227.223 166.992 227.312 166.819L230.171 161.082C231.353 158.708 233.361 156.853 235.824 155.854L236.942 155.404C237.194 155.3 237.317 155.013 237.214 154.761C237.11 154.509 236.823 154.385 236.571 154.489L235.453 154.939C232.767 156.022 230.581 158.05 229.29 160.641L226.432 166.379C226.308 166.621 226.407 166.918 226.654 167.041C226.724 167.076 226.803 167.096 226.877 167.096L226.867 167.091Z" fill="#1D1D1D"/>
<path d="M204.468 69.9314C204.468 69.9314 206.386 68.5615 205.704 63.0717C205.021 57.5819 200.353 56.0734 197.336 55.2524C194.319 54.4314 176.89 54.016 170.99 55.1139C165.089 56.2119 167.147 61.8402 167.147 61.8402C167.147 61.8402 164.263 66.0935 163.304 71.3064C162.344 76.5192 161.934 84.8924 168.106 91.7521C174.284 98.6119 178.67 99.9868 178.67 99.9868L204.468 69.9364V69.9314Z" fill="#1D1D1D"/>
<path d="M164.026 111.783L186.994 114.409L197.242 97.4103L178.176 86.1982L164.026 111.783Z" fill="white"/>
<path d="M186.994 114.903C187.167 114.903 187.326 114.814 187.42 114.666L197.667 97.6673C197.736 97.5535 197.756 97.42 197.722 97.2914C197.687 97.1628 197.608 97.054 197.494 96.9848L178.428 85.7727C178.314 85.7035 178.176 85.6887 178.047 85.7233C177.919 85.7579 177.81 85.8469 177.746 85.9607L163.596 111.545C163.517 111.689 163.512 111.867 163.591 112.01C163.665 112.158 163.808 112.257 163.977 112.277L186.945 114.903C186.945 114.903 186.984 114.903 186.999 114.903H186.994ZM196.559 97.5832L186.732 113.88L164.812 111.372L178.359 86.8806L196.554 97.5832H196.559Z" fill="#1D1D1D"/>
<path d="M208.33 88.2156C208.038 91.9695 207.084 95.8667 204.512 98.6215C200.803 102.593 194.423 103.186 189.388 101.134C184.353 99.0864 180.495 94.8726 177.493 90.3423C175.085 91.3067 172.246 91.1237 169.981 89.8576C167.716 88.5915 166.079 86.2621 165.643 83.7051C165.352 81.979 165.629 80.0848 166.726 78.7247C168.156 76.9541 170.916 76.4398 172.884 77.5773C174.833 78.7049 176.188 81.2322 178.433 81.1333C179.932 81.0641 181.129 79.6941 181.425 78.2252C181.722 76.7563 181.297 75.238 180.713 73.8531C180.13 72.4733 179.383 71.1528 178.982 69.7086C182.998 69.8075 187.039 69.9015 191.005 69.2833C194.037 68.8134 197.039 67.9083 199.695 66.3504C200.877 65.658 201.698 64.5947 202.875 65.5739C203.844 66.3801 204.527 68.5365 205.041 69.674C207.653 75.4506 208.815 81.89 208.32 88.2156H208.33Z" fill="white"/>
<path d="M195.273 102.786C199.007 102.786 202.539 101.456 204.873 98.958C207.158 96.5099 208.454 93.0083 208.825 88.2554C209.324 81.8754 208.172 75.3767 205.501 69.4714C205.387 69.2192 205.264 68.9175 205.135 68.5911C204.651 67.3942 204.047 65.9006 203.201 65.1933C201.985 64.1795 200.961 64.8966 200.14 65.4703C199.922 65.6236 199.695 65.7819 199.457 65.9204C197.074 67.32 194.205 68.2844 190.941 68.7889C187.004 69.4022 182.939 69.3033 179.007 69.2044C178.839 69.2142 178.7 69.2736 178.606 69.3923C178.507 69.5159 178.478 69.6792 178.517 69.8275C178.799 70.8464 179.244 71.8009 179.679 72.7257C179.882 73.161 180.085 73.5912 180.273 74.0314C180.965 75.6784 181.183 76.9741 180.955 78.1117C180.718 79.2838 179.754 80.5648 178.423 80.6241C177.192 80.6785 176.217 79.7586 175.184 78.7843C174.551 78.1859 173.898 77.5676 173.141 77.1324C170.97 75.8811 167.923 76.4499 166.351 78.3985C165.248 79.7636 164.817 81.7221 165.164 83.7746C165.624 86.4947 167.34 88.9281 169.748 90.2733C172.038 91.5543 174.837 91.7916 177.31 90.9261C180.945 96.3121 184.838 99.7939 189.215 101.574C191.193 102.381 193.27 102.771 195.293 102.771L195.273 102.786ZM201.93 65.6681C202.138 65.6681 202.331 65.7572 202.563 65.95C203.221 66.4941 203.795 67.9185 204.215 68.9571C204.354 69.2983 204.482 69.6099 204.601 69.872C207.203 75.6289 208.325 81.9595 207.841 88.1714C207.489 92.6918 206.283 95.9955 204.151 98.2755C200.832 101.827 194.838 102.811 189.571 100.669C185.298 98.9284 181.485 95.4614 177.899 90.0606C177.77 89.8677 177.518 89.7886 177.3 89.8727C175.05 90.7778 172.335 90.5997 170.213 89.4127C168.096 88.2258 166.529 86.0051 166.123 83.6114C165.821 81.8408 166.177 80.1691 167.102 79.0217C168.383 77.4341 170.861 76.9692 172.632 77.988C173.285 78.3639 173.898 78.9426 174.491 79.5014C175.629 80.5747 176.806 81.6973 178.453 81.6083C180.283 81.5242 181.598 79.8427 181.91 78.3046C182.182 76.9643 181.945 75.4805 181.168 73.6456C180.98 73.1956 180.772 72.7505 180.565 72.3053C180.233 71.5932 179.912 70.9106 179.665 70.2034C183.423 70.2924 187.296 70.3468 191.084 69.7583C194.477 69.2291 197.459 68.2251 199.952 66.7611C200.224 66.6029 200.466 66.4347 200.704 66.2666C201.268 65.8709 201.619 65.6533 201.935 65.6533L201.93 65.6681Z" fill="#1D1D1D"/>
<path d="M174.269 86.5343C174.378 86.5343 174.486 86.4997 174.575 86.4255C174.788 86.2574 174.828 85.9458 174.655 85.7331C173.349 84.0812 171.415 82.9239 169.343 82.548C169.076 82.4986 168.819 82.6766 168.769 82.9487C168.72 83.2157 168.898 83.4729 169.17 83.5224C171.005 83.8537 172.721 84.8824 173.878 86.3464C173.977 86.47 174.12 86.5343 174.269 86.5343Z" fill="#1D1D1D"/>
<path d="M201.287 56.3404C201.287 56.3404 181.861 57.656 163.596 68.5169L135.801 18.1097C135.801 18.1097 152.171 -0.689125 181.49 1.23972L201.287 56.3404Z" fill="white"/>
<path d="M163.596 69.0067C163.685 69.0067 163.769 68.982 163.848 68.9375C181.796 58.2695 201.129 56.8451 201.322 56.8302C201.475 56.8203 201.619 56.7363 201.703 56.6077C201.787 56.4791 201.807 56.3159 201.752 56.1725L181.955 1.07174C181.89 0.883801 181.717 0.760157 181.519 0.745319C152.3 -1.17858 135.588 17.5906 135.425 17.7785C135.286 17.9368 135.267 18.1593 135.365 18.3423L163.161 68.7495C163.225 68.8682 163.334 68.9523 163.462 68.9869C163.507 68.9968 163.546 69.0067 163.591 69.0067H163.596ZM200.605 55.9004C197.093 56.2466 179.951 58.3585 163.784 67.8247L136.409 18.1742C138.491 15.9634 154.451 0.0875332 181.138 1.70974L200.61 55.9004H200.605Z" fill="#5B9852"/>
<path d="M158.383 59.0357C158.482 59.0357 158.586 59.006 158.675 58.9417C176.099 46.1767 196.886 45.6772 197.094 45.6723C197.366 45.6723 197.583 45.4448 197.578 45.1678C197.578 44.8958 197.351 44.6831 197.084 44.6831H197.074C196.861 44.6831 175.767 45.1876 158.086 58.1405C157.864 58.3037 157.819 58.6104 157.977 58.8329C158.076 58.9665 158.225 59.0357 158.378 59.0357H158.383Z" fill="#5B9852"/>
<path d="M168.062 53.1455C168.136 53.1455 168.21 53.1306 168.284 53.0911C168.527 52.9674 168.626 52.6707 168.507 52.4283L159.679 34.8313C159.555 34.589 159.258 34.4901 159.016 34.6088C158.774 34.7324 158.675 35.0292 158.794 35.2715L167.622 52.8685C167.706 53.0416 167.884 53.1405 168.062 53.1405V53.1455Z" fill="#5B9852"/>
<path d="M164.486 54.9161C164.565 54.9161 164.644 54.8963 164.723 54.8567C164.966 54.7281 165.055 54.4264 164.921 54.1841L160.525 46.0829C160.396 45.8406 160.094 45.7565 159.852 45.8851C159.61 46.0137 159.521 46.3154 159.654 46.5577L164.051 54.6589C164.14 54.8221 164.313 54.9161 164.486 54.9161Z" fill="#5B9852"/>
<path d="M182.959 47.7348C183.013 47.7348 183.067 47.7249 183.122 47.7052C183.379 47.6161 183.512 47.3342 183.423 47.0721L181.767 42.3786C181.678 42.1214 181.396 41.9878 181.134 42.0769C180.876 42.1659 180.743 42.4478 180.832 42.7099L182.489 47.4035C182.558 47.6062 182.751 47.7348 182.954 47.7348H182.959Z" fill="#5B9852"/>
<path d="M291.82 94.8083C291.647 94.7094 291.449 94.6599 291.251 94.6599L198.093 94.0318C196.643 94.0219 195.625 95.4957 196.188 96.8311C197.183 99.1853 199.878 102.173 207.138 102.286C213.058 102.375 216.333 101.099 218.138 99.7837C220.625 97.9587 223.642 97.0091 226.729 97.0091H291.246C292.453 97.0091 292.873 95.4067 291.82 94.8132V94.8083Z" fill="white"/>
<path d="M207.742 102.786C212.475 102.786 216.07 101.911 218.434 100.18C220.828 98.4238 223.697 97.4989 226.733 97.4989H291.246C292.018 97.4989 292.665 96.9994 292.858 96.2526C293.051 95.5058 292.735 94.754 292.062 94.3781C291.815 94.2397 291.538 94.1655 291.256 94.1655L198.098 93.5374H198.078C197.227 93.5374 196.436 93.9577 195.961 94.6699C195.491 95.3722 195.407 96.2526 195.733 97.0241C196.817 99.586 199.675 102.667 207.133 102.781C207.336 102.781 207.539 102.781 207.742 102.781V102.786ZM291.577 95.2387C291.914 95.4266 291.963 95.758 291.899 96.0053C291.835 96.2526 291.627 96.5098 291.241 96.5098H226.729C223.479 96.5098 220.408 97.5039 217.846 99.3832C216.278 100.531 213.133 101.876 207.148 101.792C200.224 101.683 197.613 98.9282 196.643 96.6383C196.446 96.1685 196.495 95.6492 196.782 95.2189C197.074 94.7837 197.553 94.5413 198.088 94.5265L291.246 95.1546C291.36 95.1546 291.473 95.1843 291.572 95.2436L291.577 95.2387Z" fill="#1D1D1D"/>
<path d="M294.268 117.653C294.268 117.653 287.428 136.155 265.182 136.298C262.872 136.313 260.661 135.344 259.128 133.608C255.834 129.879 249.425 123.004 244.222 119.705C240.329 117.237 237.931 114.943 240.206 112.074C240.206 112.074 234.76 107.761 239.538 104.967C239.538 104.967 232.337 101.342 231.595 99.4921C230.853 97.6374 232.278 97.0093 232.278 97.0093H258.545C258.545 97.0093 282.452 108.676 294.268 117.663V117.653Z" fill="white"/>
<path d="M265.132 136.793H265.187C287.517 136.65 294.659 118.014 294.733 117.826C294.807 117.623 294.743 117.391 294.569 117.262C282.848 108.35 259.005 96.6782 258.767 96.5595C258.698 96.5248 258.624 96.51 258.55 96.51H232.283C232.213 96.51 232.144 96.5248 232.08 96.5545C231.437 96.8414 230.413 97.8602 231.14 99.6753C231.808 101.337 236.625 104.003 238.574 105.027C237.659 105.744 237.159 106.589 237.095 107.559C236.951 109.562 238.752 111.431 239.543 112.158C238.954 113.039 238.727 113.929 238.875 114.809C239.221 116.872 241.526 118.583 243.96 120.131C249.093 123.39 255.439 130.186 258.762 133.944C260.37 135.76 262.684 136.803 265.132 136.803V136.793ZM293.664 117.821C292.596 120.309 285.163 135.68 265.182 135.804H265.132C262.971 135.804 260.923 134.889 259.504 133.282C256.146 129.483 249.731 122.609 244.494 119.29C242.357 117.935 240.136 116.323 239.855 114.641C239.731 113.909 239.973 113.172 240.601 112.386C240.769 112.173 240.735 111.862 240.522 111.689C240.497 111.669 237.941 109.611 238.084 107.623C238.143 106.772 238.722 106.026 239.795 105.398C239.953 105.304 240.047 105.135 240.038 104.957C240.033 104.774 239.929 104.611 239.766 104.532C237.045 103.162 232.55 100.536 232.06 99.3143C231.59 98.1421 232.179 97.6475 232.406 97.509H258.436C260.137 98.3449 282.324 109.31 293.669 117.831L293.664 117.821Z" fill="#1D1D1D"/>
<path d="M257.966 103.103C258.134 103.103 258.297 103.019 258.391 102.86C258.53 102.628 258.456 102.321 258.218 102.183C254.049 99.7 249.533 97.8849 244.805 96.7968C244.538 96.7375 244.271 96.9007 244.212 97.1678C244.152 97.4348 244.316 97.7019 244.583 97.7613C249.212 98.8295 253.633 100.605 257.714 103.033C257.793 103.083 257.882 103.103 257.966 103.103Z" fill="#1D1D1D"/>
<path d="M245.611 107.965C245.809 107.965 245.992 107.846 246.071 107.653C246.17 107.401 246.047 107.114 245.794 107.01L241.482 105.309C241.229 105.21 240.943 105.333 240.839 105.586C240.74 105.838 240.863 106.125 241.116 106.229L245.428 107.93C245.488 107.955 245.552 107.965 245.611 107.965Z" fill="#1D1D1D"/>
<path d="M243.712 113.983C243.9 113.983 244.083 113.875 244.162 113.692C244.276 113.444 244.162 113.147 243.91 113.039L241.694 112.05C241.442 111.936 241.15 112.05 241.041 112.302C240.928 112.549 241.041 112.846 241.294 112.955L243.509 113.944C243.574 113.973 243.643 113.988 243.712 113.988V113.983Z" fill="#1D1D1D"/>
<path d="M277.858 251.01H174.818C174.546 251.01 174.323 251.233 174.323 251.505C174.323 251.777 174.546 252 174.818 252H277.858V251.01Z" fill="#1D1D1D"/>
<path d="M1.52588e-05 252H94.5036C94.7756 252 94.9982 251.777 94.9982 251.505C94.9982 251.233 94.7756 251.01 94.5036 251.01H0.0346375L1.52588e-05 252Z" fill="#1D1D1D"/>
</svg>
