<svg width="164" height="171" viewBox="0 0 164 171" fill="none" xmlns="http://www.w3.org/2000/svg">
<g id="Group 92">
<path id="Vector" d="M1.20665 21.6114C0.825513 21.6114 0.513672 21.2996 0.513672 20.9184V9.24169C0.513672 8.86055 0.825513 8.54871 1.20665 8.54871H161.091C161.472 8.54871 161.784 8.86055 161.784 9.24169C161.784 9.62283 161.472 9.93467 161.091 9.93467H1.89963V20.9184C1.89963 21.2996 1.58779 21.6114 1.20665 21.6114Z" fill="#1D1D1D"/>
<g id="Group">
<g id="Group_2">
<path id="Vector_2" d="M89.9082 112.087H85.5355L84.0802 1.43176H91.3704L89.9082 112.087Z" fill="white"/>
<path id="Vector_3" d="M89.9082 112.78H85.5355C85.1544 112.78 84.8494 112.475 84.8425 112.094L83.3873 1.43868C83.3873 1.25158 83.4566 1.07833 83.5882 0.946664C83.7199 0.814997 83.8931 0.73877 84.0802 0.73877H91.3704C91.5575 0.73877 91.7308 0.814997 91.8624 0.946664C91.9941 1.07833 92.0634 1.25851 92.0634 1.43868L90.6081 112.094C90.6081 112.475 90.2963 112.78 89.9151 112.78H89.9082ZM86.2215 111.394H89.2291L90.6705 2.12473H84.7871L86.2285 111.394H86.2215Z" fill="#1D1D1D"/>
</g>
<g id="Group_3">
<path id="Vector_4" d="M87.7253 170.034C98.1545 170.034 106.609 156.24 106.609 139.224C106.609 122.208 98.1545 108.414 87.7253 108.414C77.2961 108.414 68.8416 122.208 68.8416 139.224C68.8416 156.24 77.2961 170.034 87.7253 170.034Z" fill="white"/>
<path id="Vector_5" d="M87.7253 170.727C76.9287 170.727 68.1486 156.597 68.1486 139.224C68.1486 121.851 76.9287 107.721 87.7253 107.721C98.522 107.721 107.302 121.851 107.302 139.224C107.302 156.597 98.522 170.727 87.7253 170.727ZM87.7253 109.107C77.6979 109.107 69.5346 122.62 69.5346 139.224C69.5346 155.828 77.6979 169.341 87.7253 169.341C97.7528 169.341 105.916 155.828 105.916 139.224C105.916 122.62 97.7528 109.107 87.7253 109.107Z" fill="#1D1D1D"/>
</g>
<path id="Vector_6" d="M92.3544 163.596C92.1188 163.596 91.8901 163.479 91.7585 163.257C91.5644 162.924 91.6753 162.501 92.001 162.307C97.7043 158.926 101.543 149.917 101.543 139.889C101.543 126.778 95.1264 116.106 87.2333 116.106C84.9118 116.106 82.6874 117.014 80.6292 118.809C80.3382 119.058 79.9016 119.031 79.6521 118.74C79.4026 118.449 79.4303 118.012 79.7214 117.763C82.0082 115.774 84.6069 114.72 87.2333 114.72C95.8886 114.72 102.929 126.009 102.929 139.889C102.929 150.388 98.82 159.875 92.7079 163.499C92.597 163.562 92.4723 163.596 92.3544 163.596Z" fill="#1D1D1D"/>
</g>
<g id="Group_4">
<g id="Group_5">
<path id="Vector_7" d="M149.699 112.087H145.326L143.864 1.43176H151.154L149.699 112.087Z" fill="white"/>
<path id="Vector_8" d="M149.699 112.78H145.326C144.945 112.78 144.64 112.475 144.633 112.094L143.171 1.43868C143.171 1.25158 143.24 1.07833 143.372 0.946664C143.503 0.814997 143.677 0.73877 143.864 0.73877H151.154C151.341 0.73877 151.514 0.814997 151.646 0.946664C151.778 1.07833 151.847 1.25851 151.847 1.43868L150.392 112.094C150.392 112.475 150.08 112.78 149.699 112.78ZM146.012 111.394H149.02L150.461 2.12473H144.578L146.019 111.394H146.012Z" fill="#1D1D1D"/>
</g>
<g id="Group_6">
<path id="Vector_9" d="M147.509 150.52C155.741 150.52 162.415 139.692 162.415 126.335C162.415 112.978 155.741 102.15 147.509 102.15C139.276 102.15 132.603 112.978 132.603 126.335C132.603 139.692 139.276 150.52 147.509 150.52Z" fill="white"/>
<path id="Vector_10" d="M147.509 151.213C138.909 151.213 131.91 140.056 131.91 126.335C131.91 112.614 138.909 101.457 147.509 101.457C156.109 101.457 163.108 112.614 163.108 126.335C163.108 140.056 156.109 151.213 147.509 151.213ZM147.509 102.843C139.671 102.843 133.296 113.383 133.296 126.335C133.296 139.287 139.671 149.827 147.509 149.827C155.346 149.827 161.722 139.287 161.722 126.335C161.722 113.383 155.346 102.843 147.509 102.843Z" fill="#1D1D1D"/>
</g>
<path id="Vector_11" d="M151.272 145.315C151.043 145.315 150.814 145.205 150.683 144.99C150.482 144.664 150.579 144.241 150.898 144.033C155 141.449 157.758 134.533 157.758 126.834C157.758 116.785 153.17 108.608 147.537 108.608C145.901 108.608 144.335 109.294 142.873 110.646C142.589 110.909 142.152 110.888 141.896 110.611C141.632 110.327 141.653 109.89 141.93 109.634C143.628 108.061 145.568 107.229 147.537 107.229C153.933 107.229 159.144 116.03 159.144 126.841C159.144 135.004 156.123 142.384 151.632 145.218C151.514 145.288 151.39 145.322 151.265 145.322L151.272 145.315Z" fill="#1D1D1D"/>
</g>
<g id="Group_7">
<g id="Group_8">
<path id="Vector_12" d="M2.07983 127.326C1.69869 129.141 1.49773 131.019 1.49773 132.939C1.49773 148.981 15.3781 161.989 32.4948 161.989C49.6114 161.989 63.4918 148.981 63.4918 132.939C63.4918 131.019 63.2909 129.141 62.9097 127.326H2.07983Z" fill="white"/>
<path id="Vector_13" d="M32.4948 162.682C15.0178 162.682 0.804737 149.342 0.804737 132.939C0.804737 131.019 1.0057 129.086 1.4007 127.187C1.47 126.868 1.75412 126.633 2.07982 126.633H62.9097C63.2354 126.633 63.5195 126.861 63.5888 127.187C63.9838 129.086 64.1848 131.026 64.1848 132.939C64.1848 149.335 49.9648 162.682 32.4948 162.682ZM2.64807 128.019C2.34316 129.647 2.1907 131.303 2.1907 132.939C2.1907 148.572 15.787 161.296 32.4948 161.296C49.2025 161.296 62.7988 148.572 62.7988 132.939C62.7988 131.303 62.6464 129.647 62.3415 128.019H2.64807Z" fill="#1D1D1D"/>
</g>
<g id="Group_9">
<path id="Vector_14" d="M35.1004 127.326H30.7277L29.2724 1.43176H36.5626L35.1004 127.326Z" fill="white"/>
<path id="Vector_15" d="M35.1004 128.019H30.7277C30.3465 128.019 30.0416 127.714 30.0347 127.333L28.5794 1.43868C28.5794 1.25158 28.6487 1.07833 28.7804 0.946664C28.9121 0.814997 29.0853 0.73877 29.2724 0.73877H36.5626C36.7497 0.73877 36.9229 0.814997 37.0546 0.946664C37.1862 1.07833 37.2555 1.25851 37.2555 1.43868L35.8003 127.333C35.8003 127.714 35.4884 128.019 35.1073 128.019H35.1004ZM31.4137 126.633H34.4143L35.8627 2.12473H29.9723L31.4137 126.633Z" fill="#1D1D1D"/>
</g>
<path id="Vector_16" d="M35.4399 157.006C35.1073 157.006 34.8093 156.763 34.7539 156.424C34.6915 156.05 34.9479 155.689 35.3291 155.627C53.208 152.737 54.3237 132.384 54.3306 132.176C54.3514 131.795 54.6702 131.49 55.0513 131.518C55.4324 131.532 55.7304 131.858 55.7096 132.239C55.7027 132.454 54.5246 153.929 35.5439 156.999C35.5092 156.999 35.4676 157.006 35.433 157.006H35.4399Z" fill="#1D1D1D"/>
</g>
</g>
</svg>
